<svg xmlns="http://www.w3.org/2000/svg" width="163.291" height="48.145" viewBox="0 0 163.291 48.145"><defs><style>.a{fill:#fff;}</style></defs><g transform="translate(2299.72 -296.916)"><g transform="translate(-2252.285 308.631)"><g transform="translate(0 0)"><path class="a" d="M-2071.767,372.362v.07h-7.856v-.07c.591-.452.869-1.877,0-4.276l-.312-.834h-8.969l-.313.834c-.9,2.4-.556,3.824-.07,4.276v.07h-7.3v-.07a14.868,14.868,0,0,0,3.372-5.631l4.97-14.322c.7-2.051.035-3.511-.626-4.067v-.07h9.211v.07a3.686,3.686,0,0,0-.625,4.067l5.11,14.322A14.147,14.147,0,0,0-2071.767,372.362Zm-14.7-12.2-1.286,3.685h6.674l-1.286-3.685a34.7,34.7,0,0,1-2.016-7.265h-.139A32.722,32.722,0,0,1-2086.471,360.16Z" transform="translate(2096.586 -347.994)"/><path class="a" d="M-1976.62,353.443l-.069.035a5.215,5.215,0,0,0-4.519-2.572h-2.607v15.121c0,2.99.973,4.832,2.12,5.423v.07h-9v-.07c1.008-.591,2.12-2.468,2.12-5.423V350.906h-2.641a5.215,5.215,0,0,0-4.519,2.572l-.07-.035.591-6.361a35.476,35.476,0,0,0,4.762.278h8.482a35.476,35.476,0,0,0,4.762-.278Z" transform="translate(2019.34 -347.082)"/><path class="a" d="M-1884.392,364.88l-.974,6.917a22.965,22.965,0,0,0-4.241-.278h-12.27v-.07c.869-.591,1.877-2.294,1.877-5.145V352.574c0-2.885-.973-4.554-1.877-5.145v-.07h12.479a20.387,20.387,0,0,0,3.685-.278l.591,6.222-.07.035c-.834-1.7-2.746-2.573-5.457-2.573h-4.589v6.118h2.642a35.558,35.558,0,0,0,5.423-.243l-1.008,5.84h-.07c-.591-1.564-1.842-2.19-3.789-2.19h-3.2v7.821h3.789a8.144,8.144,0,0,0,6.987-3.268Z" transform="translate(1947.343 -347.082)"/><path class="a" d="M-1812.562,372.362c.869-.591,1.877-2.294,1.877-5.145v-13.9c0-1.877-.591-4.1-1.877-4.971v-.07h7.891a7.8,7.8,0,0,0,1.425,3.337l5.005,8.412a48.3,48.3,0,0,1,3.2,6.883h.139a40.625,40.625,0,0,1-.556-7.161v-6.257c0-2.885-.869-4.554-1.773-5.145v-.07h8.03v.07c-.9.591-1.877,2.294-1.877,5.145v13.731c0,2.85.973,4.554,1.877,5.145v.07h-7.334a23.685,23.685,0,0,0-1.738-3.3l-4.9-7.96a32.329,32.329,0,0,1-3.615-7.925h-.139a44.084,44.084,0,0,1,.626,8.064v5.909c0,2.885.869,4.554,1.773,5.145v.07h-8.03Z" transform="translate(1878.886 -347.994)"/><path class="a" d="M-1681.905,372.362v.07h-7.856v-.07c.591-.452.869-1.877,0-4.276l-.313-.834h-8.968l-.313.834c-.9,2.4-.556,3.824-.07,4.276v.07h-7.3v-.07a14.867,14.867,0,0,0,3.372-5.631l4.97-14.322c.7-2.051.035-3.511-.626-4.067v-.07h9.211v.07a3.686,3.686,0,0,0-.626,4.067l5.11,14.322A14.148,14.148,0,0,0-1681.905,372.362Zm-14.7-12.2-1.286,3.685h6.674l-1.286-3.685a34.692,34.692,0,0,1-2.016-7.265h-.139A32.715,32.715,0,0,1-1696.609,360.16Z" transform="translate(1797.762 -347.994)"/></g></g><g transform="translate(-2299.72 296.916)"><path class="a" d="M-2218.829,430.639l.009-.016a.967.967,0,0,1,0-.864,2.226,2.226,0,0,0,.236-.735,2.538,2.538,0,0,0-.578.709C-2219.4,430.152-2219.291,430.442-2218.829,430.639Z" transform="translate(2238.066 -398.174)"/><path class="a" d="M-2217.766,384.8l-.124-.021.123.022Z" transform="translate(2236.998 -364.259)"/><path class="a" d="M-2258.308,301.52l-19.95-4.6-19.95,4.6s-2.69,19.087-.9,24.21,10.119,12.938,15.115,16.012a63.309,63.309,0,0,0,5.731,3.318,63.471,63.471,0,0,0,5.732-3.318c5-3.075,13.321-10.888,15.115-16.012S-2258.308,301.52-2258.308,301.52Zm-.73,23.218c-1.492,4.263-9.523,12.182-14.807,15.433-2.169,1.335-3.552,2.147-4.413,2.635-.86-.488-2.244-1.3-4.413-2.635-5.284-3.252-13.315-11.17-14.807-15.433-1.042-2.977-.212-14.035.815-22.148l13.552-3.127a28.067,28.067,0,0,1,4.627-1.851l.219-.067.219.067a28.059,28.059,0,0,1,4.614,1.845l13.581,3.134C-2258.825,310.7-2258,321.761-2259.037,324.737Z" transform="translate(2299.72 -296.916)"/><g transform="translate(7.086 1.768)"><path class="a" d="M-2245.08,383.71c1.113.255,1.716.445,2.768.73l.062-.34-7.249-1.353.542,1.281A5.45,5.45,0,0,1-2245.08,383.71Z" transform="translate(2254.141 -364.471)"/><path class="a" d="M-2245.387,391.359l-.838-1.979a6.882,6.882,0,0,1,4.937.269c.6.246,1.019.418,1.319.539l-.1.552a2.829,2.829,0,0,0-1.432-.821,3.769,3.769,0,0,0-2.508.3,1.619,1.619,0,0,0-.158.086A5.714,5.714,0,0,0-2245.387,391.359Z" transform="translate(2251.631 -369.298)"/><path class="a" d="M-2242.384,395.762l.1-.063a1.5,1.5,0,0,1,.18-.095,5.9,5.9,0,0,1,2.182-.622,3.8,3.8,0,0,1,2.542.826l.122-.672a4.116,4.116,0,0,0-5.225.391Z" transform="translate(2248.763 -373.382)"/><path class="a" d="M-2219.879,449.939a1.8,1.8,0,0,1-1.412-.564,5.4,5.4,0,0,1-.871-1.112c.109-.082.158.023.213.064a8.307,8.307,0,0,0,.809.543,2.326,2.326,0,0,0,1.308.339c.264-.012.53-.02.794-.017v-1.567c-.548.021-1.115-.118-1.876-.1-.263.02-.766.052-1.268.1a2.3,2.3,0,0,1-.276.01l.15,4.556a10.58,10.58,0,0,0,3.271,1.537v-3.8C-2219.319,449.919-2219.6,449.923-2219.879,449.939Z" transform="translate(2233.415 -414.12)"/><path class="a" d="M-2237.446,407.929l3.255,1.922.231,7.028a4.558,4.558,0,0,1,.46-.243,1.459,1.459,0,0,0,.412-.2,2.049,2.049,0,0,1,2.268-.185.587.587,0,0,0,.294.07v-1.444l-3.459-6.123.038-.209c-.12.034-.241.063-.364.086l-.033,0A5.984,5.984,0,0,1-2237.446,407.929Zm5.173,5.821a.406.406,0,0,1,.519-.07,2.37,2.37,0,0,1,.88.749,1.755,1.755,0,0,1-.748-.1c-.181-.042-.362-.123-.533.026-.067.058-.116.033-.142-.036A.538.538,0,0,1-2232.273,413.75Zm-.69-.186a2.546,2.546,0,0,1,.578-.709,2.22,2.22,0,0,1-.235.735.965.965,0,0,0,0,.864l-.009.016C-2233.1,414.273-2233.2,413.984-2232.964,413.564Z" transform="translate(2244.902 -383.773)"/><path class="a" d="M-2180.772,378.62l-.622.205-2.791,5.859-3.028,2.116-.567.4-.108,7.521-.045,3.147,0,.271-.007.462-.039,2.732.335-3.051.05-.452.047-.432,1.079-9.832,3.22-1.956,2.355-5.63.638-1.525Z" transform="translate(2206.99 -361.178)"/><path class="a" d="M-2193.561,341.969l-.422-.093-.336-.074q-1.6-.359-3.17-.79c-.661-.187-1.32-.376-1.971-.592s-1.3-.432-1.934-.688-1.267-.513-1.875-.819a17.018,17.018,0,0,1-1.776-1,10.3,10.3,0,0,1-1.583-1.276,6.424,6.424,0,0,1-1.214-1.644h0a5.533,5.533,0,0,0,1.037,1.8,9.079,9.079,0,0,0,1.541,1.427,14.359,14.359,0,0,0,1.786,1.1,20.354,20.354,0,0,0,1.906.861,27.389,27.389,0,0,0,3.99,1.195,28.91,28.91,0,0,0,3.27.538c.112.011.224.023.336.033.138.012.276.022.414.032l.087.007h0Z" transform="translate(2222.211 -327.867)"/><path class="a" d="M-2265.16,317.776c.041-.175.107-.447.2-.794.736-2.712,3.19-10.061,8.681-12.5-9.884,3.487-11.787,10.04-12.184,13.242-.034.278-.058.53-.074.753-.366.06-.628.1-.754.114l-.087.011.06.5.149,1.253.573,4.831.344,2.284.625,10c2.124,4.248,8.5,7.688,8.5,7.688l-.071-2.689-.007-.283-.01-.367-.285-10.812-3.561-2.1-.457-1.066-.311-.726-.938-2.189-.168-.392-1.19-2.776,8.805,1.459h0l.085.016.124.021v0l.269.049-.164.9-.068.376-.178.979-.156.863-.039.214-.123.678-.322,1.77-.054.3,2.942,5.209V311.609h0C-2256.381,314.965-2261.433,316.831-2265.16,317.776Z" transform="translate(2269.377 -304.485)"/></g></g></g></svg>