<svg xmlns="http://www.w3.org/2000/svg" xmlns:xlink="http://www.w3.org/1999/xlink" width="394.261" height="477.033" viewBox="0 0 394.261 477.033"><defs><style>.a{fill:url(#a);}.b{fill:#f8f8f8;}.c{clip-path:url(#b);}.d{fill:#f4a97f;}.e{fill:#eac975;}.f{fill:#ffe6a1;}.g{opacity:0.65;}.h{fill:#7f4a26;}.i{opacity:0.53;}.j{fill:#f3b88f;}.k{fill:#fff;}.l{fill:#aa693c;}.m{fill:#040503;}.n{fill:#633618;}.o{opacity:0;}.p{fill:#ef866c;}.q{opacity:0.048;}.r{opacity:0.095;}.s{opacity:0.143;}.t{opacity:0.19;}.u{opacity:0.238;}.v{opacity:0.286;}.w{opacity:0.333;}.x{opacity:0.381;}.y{opacity:0.429;}.z{opacity:0.476;}.aa{opacity:0.524;}.ab{opacity:0.571;}.ac{opacity:0.619;}.ad{opacity:0.667;}.ae{opacity:0.714;}.af{opacity:0.762;}.ag{opacity:0.81;}.ah{opacity:0.857;}.ai{opacity:0.905;}.aj{opacity:0.952;}.ak{opacity:0.66;}.al{fill:#ffe2dd;}.am{fill:#965b32;}.an{fill:#ef5454;}.ao{opacity:0.63;}.ap{fill:#936241;}.aq{fill:#ffc931;}.ar{fill:#dba51f;}.as{fill:#e5aa15;}.at{fill:#fce9c0;}.au{opacity:0.43;}.av{fill:#e5ab1a;}.aw{opacity:0.7;}.ax{fill:#e59373;}.ay{opacity:0.17;}.az{fill:#fcdb88;}</style><linearGradient id="a" x1="0.242" y1="0.075" x2="0.728" y2="0.953" gradientUnits="objectBoundingBox"><stop offset="0" stop-color="#efefef"/><stop offset="1" stop-color="#d0d0d0"/></linearGradient><clipPath id="b"><path class="a" d="M158-110A167.887,167.887,0,0,1,298.083-34.774C315.7-8.256,336,133.67,336,168A168,168,0,0,1,0,168C0,142.763-4.435,8.825,5.6-12.8A167.968,167.968,0,0,1,158-110Z" transform="translate(859 853)"/></clipPath></defs><g transform="translate(-785.716 -743)"><g transform="translate(-15.024)"><circle class="b" cx="168" cy="168" r="168" transform="translate(859 853)"/><g class="c"><g transform="translate(814.163 711.329)"><g transform="translate(83.526 213.15)"><path class="d" d="M152.174,143.106s-16.193,17.514-30.735,75.68L85.746,189.7l-10.575,7.271s25.778,40.98,52.878,44.947c0,0,38.336-50.233,37.675-52.878S152.174,143.106,152.174,143.106Z" transform="translate(-75.171 -143.106)"/></g><g transform="translate(101.204 401.428)"><path class="e" d="M86.031,307.351s40.628,9.716,65.358-11.039l86.556.882s30.912,15.9,61.243,10.157l-24.59-41.51-151.473-7.066-37.094,46.81Z" transform="translate(-86.031 -258.775)"/></g><g transform="translate(144.923 287.938)"><path class="f" d="M237.177,318.224c-2.756,68.243,3.78,205.123,3.78,205.123-3.973,1.895-25.72,5.233-25.72,5.233a17.828,17.828,0,0,1-14.9-.941c-4.637,4.107-18.548,1.577-18.548,1.577-7.286,3.8-19.873-.636-19.873-.636-8.943,8.241-17.553-.941-17.553-.941-6.955,6.955-31.469-6.941-31.469-6.941s10.219-1.882,9.278-10.785c-7.313-69.117-7.592-133.6-5.246-186.351.609-13.645,1.39-26.509,2.279-38.473,4.344-59.088,11.129-96.038,11.129-96.038l53.722,4.253,6.731.529,30.087,2.386s4.37,22.442,8.716,44.593c3.578,18.27,7.115,36.354,8.174,41.507C238.276,284.878,237.971,298.536,237.177,318.224Z" transform="translate(-112.89 -189.052)"/></g><g class="g" transform="translate(148.955 292.125)"><path class="e" d="M235.622,316.609c-3.828-1.258-7.672-2.516-11.5-3.776-4.53-1.5-9.1-3.006-13.155-5.484-9.871-6-15.726-17.29-17.223-28.749a4.443,4.443,0,0,0-.636-2.106,4.918,4.918,0,0,0-2.57-1.351c-4.7-1.551-8.306-5.539-10.439-10s-3.021-9.42-3.75-14.321c-.662-4.439-1.232-8.9-1.709-13.367-.98,8.386-2.027,16.984-5.974,24.442s-11.567,13.58-19.992,13.289a42.632,42.632,0,0,1-33.307,46.766c.609-13.645,1.39-26.509,2.279-38.473a162.53,162.53,0,0,0,7.631-25.663c1.828-8.7,2.941-17.566,5.378-26.125s6.32-16.945,12.786-23.039c6.452-6.068,14.917-9.407,23.171-12.612,5.1-1.987,10.492-4,15.885-4.346a21.289,21.289,0,0,1,6.465.464c.093.026.173.039.265.065,10.81,2.678,17.077,13.66,23.024,23.106,5.075,8.069,10.824,15.725,15.779,23.874,3.578,18.27,7.115,36.354,8.174,41.507C236.721,283.263,236.416,296.922,235.622,316.609Z" transform="translate(-115.367 -191.624)"/></g><g transform="translate(246.82 208.475)"><path class="d" d="M257.949,327.685l-10.069-.451s-39.666-54.345-45.959-69.369c-1.325-3.179-3.272-8.069-5.525-13.818-8.386-21.423-20.9-54.675-20.9-54.675l.212-3.338.451-7.169,2.45-38.631c1.843.158,4.877,4.437,8.546,11.181,2.8,5.153,5.962,11.739,9.247,19.025,5.777,12.838,11.884,27.834,16.958,40.976,6.4,16.6,11.116,30.233,11.327,32.8C225.317,251.48,256.742,319.882,257.949,327.685Z" transform="translate(-175.491 -140.234)"/></g><g transform="translate(161.185 90.089)"><path class="h" d="M216.936,112.568a47.311,47.311,0,0,1-.446,6.68c-2.878,21.9-20.146,36.63-45.619,36.63-17.916,0-32.553-7.1-40.757-18.885a41.266,41.266,0,0,1-7.234-23.963,46.112,46.112,0,0,1,7.681-26.042,34.51,34.51,0,0,1,2.077-2.847c.4-.523.832-1.016,1.261-1.509,8.2-9.342,20.563-15.13,35.631-15.13,22.795,0,39.894,12.945,45.466,31.537A46.886,46.886,0,0,1,216.936,112.568Z" transform="translate(-122.881 -67.503)"/></g><g transform="translate(155.675 171.74)"><path class="d" d="M223.7,185.553s-.008.22-.024.594A101.191,101.191,0,0,1,196.5,198.61c-35.343,6.724-72.216-.433-72.979-.645-3.345-.952-3.651-12.413-3.651-12.413S115.461,153.128,137,152.433c3.015-.094,13.059-.8,17.133-1.275,4.67-.534,7.387-.858,8.371-14.925.127-1.75.221-3.711.3-5.918.093-2.946.135-6.316.135-10.178,0-3.015,1.434-2.123,4.271-1.707l-.01-.492a36.948,36.948,0,0,1,4.585.457,36.781,36.781,0,0,1,4.585-.457l-.01.492c2.827-.415,5.673-1.851,5.673.781,0,4.823.067,8.9.212,12.353.076,2.062.2,3.9.33,5.552,1.138,13.245,4.126,13.525,9.866,14.391,4.058.62,11.106.832,14.119.926C228.1,153.128,223.7,185.553,223.7,185.553Z" transform="translate(-119.496 -117.665)"/></g><g class="i" transform="translate(198.683 184.39)"><path class="j" d="M165.988,132.238c-5.4,2.529-13.557,2.183-20.07-.882.127-1.75.221-3.711.3-5.918,9.534,3.083,15.569,2.276,19.442,1.248C165.734,128.748,165.853,130.59,165.988,132.238Z" transform="translate(-145.918 -125.437)"/></g><g transform="translate(172.448 101.954)"><path class="d" d="M130.384,104.1s2.547,34.5,4.631,38.44,19.193,18.732,31.7,18.908c9.926.14,19.246-7.1,29.436-19.372,3.788-4.563,5.557-40.291,5.326-44.693s-13.894-41.219-66.923-10.419C127.5,91.064,130.384,104.1,130.384,104.1Z" transform="translate(-129.8 -74.792)"/></g><g transform="translate(217.49 132.177)"><path class="h" d="M157.5,98.979l-.029-3.485s12.84-4.034,18.361-1.009c.728.4,1.851,1.649,2.025,1.662s-10.947-2.292-20.356,2.832Z" transform="translate(-157.472 -93.36)"/></g><g transform="translate(180.073 132.177)"><path class="h" d="M154.842,98.979l.031-3.485s-12.841-4.034-18.362-1.009c-.728.4-1.851,1.649-2.023,1.662s10.947-2.292,20.355,2.832Z" transform="translate(-134.485 -93.36)"/></g><g transform="translate(217.288 139.768)"><path class="k" d="M157.493,103.554s8-10.632,17.376-2.412c1.685,1.478-4.862,10.885-15.128,4.787a11.159,11.159,0,0,1-2.393-2.171Z" transform="translate(-157.348 -98.023)"/></g><g transform="translate(222.382 140.184)"><path class="l" d="M168.891,102.68a4.211,4.211,0,1,1-4.206-4.4A4.307,4.307,0,0,1,168.891,102.68Z" transform="translate(-160.477 -98.279)"/></g><g transform="translate(223.703 141.613)"><path class="m" d="M167.233,102.264a2.975,2.975,0,1,1-2.972-3.107A3.042,3.042,0,0,1,167.233,102.264Z" transform="translate(-161.289 -99.157)"/></g><g transform="translate(217.166 139.517)"><path class="n" d="M157.278,103.709s7.836-10.885,17.638-2.933c1.105.9.772,2.855-2.393,5.249-.581.438,2.779-2.547,2.238-4.554-.122-.454-7.564-5.481-16.98,2.16C157.182,104.118,157.278,103.709,157.278,103.709Z" transform="translate(-157.273 -97.869)"/></g><g transform="translate(227.854 142.428)"><path class="k" d="M166.325,100.9a1.243,1.243,0,1,1-1.242-1.242A1.243,1.243,0,0,1,166.325,100.9Z" transform="translate(-163.839 -99.658)"/></g><g transform="translate(222.733 143.874)"><path class="k" d="M162.049,101.225a.678.678,0,1,1-.679-.679A.678.678,0,0,1,162.049,101.225Z" transform="translate(-160.693 -100.546)"/></g><g transform="translate(219.935 138.636)"><path class="n" d="M177.053,98.581a7.075,7.075,0,0,1-2.077,2.713,1.251,1.251,0,0,1-.518.282,1.27,1.27,0,0,1-.749-.151c-.916-.409-1.748-.99-2.652-1.429a10.863,10.863,0,0,0-6.2-.912,14.52,14.52,0,0,0-5.884,2.267c.37-1.133,2.1-3.487,7.053-3.99,3.4-.345,6.688,2.1,10.059,1.553A2.324,2.324,0,0,0,177.053,98.581Z" transform="translate(-158.974 -97.328)"/></g><g transform="translate(181.804 139.069)"><path class="k" d="M153.189,103.125s-8-10.632-17.378-2.412c-1.685,1.476,4.864,10.883,15.13,4.786a11.2,11.2,0,0,0,2.393-2.171Z" transform="translate(-135.548 -97.594)"/></g><g transform="translate(186.082 139.486)"><path class="l" d="M138.176,102.25a4.211,4.211,0,1,0,4.208-4.4A4.306,4.306,0,0,0,138.176,102.25Z" transform="translate(-138.176 -97.85)"/></g><g transform="translate(187.231 140.913)"><path class="m" d="M138.882,101.836a2.974,2.974,0,1,0,2.971-3.109A3.042,3.042,0,0,0,138.882,101.836Z" transform="translate(-138.882 -98.727)"/></g><g transform="translate(181.494 138.818)"><path class="n" d="M153.569,103.279s-7.834-10.883-17.638-2.933c-1.105.9-.772,2.857,2.393,5.249.581.439-2.779-2.547-2.238-4.554.122-.453,7.564-5.481,16.982,2.162C153.667,103.689,153.569,103.279,153.569,103.279Z" transform="translate(-135.357 -97.44)"/></g><g transform="translate(178.864 137.937)"><path class="n" d="M133.742,98.151a7.055,7.055,0,0,0,2.075,2.713.988.988,0,0,0,1.266.132c.918-.41,1.75-.99,2.653-1.431a10.883,10.883,0,0,1,6.2-.912,14.562,14.562,0,0,1,5.886,2.269c-.371-1.133-2.1-3.487-7.053-3.991-3.4-.343-6.69,2.1-10.059,1.554A2.31,2.31,0,0,1,133.742,98.151Z" transform="translate(-133.742 -96.899)"/></g><g transform="translate(191.648 142.148)"><path class="k" d="M144.082,100.73a1.243,1.243,0,1,1-1.242-1.244A1.243,1.243,0,0,1,144.082,100.73Z" transform="translate(-141.596 -99.486)"/></g><g transform="translate(186.528 143.596)"><path class="k" d="M139.806,101.052a.678.678,0,1,1-.679-.677A.679.679,0,0,1,139.806,101.052Z" transform="translate(-138.45 -100.375)"/></g><g transform="translate(240.442 137.52)"><path class="d" d="M171.856,101.823s7.873-9.493,10.73-2.779c.155.363,1.157,13.277-9.8,15.361C170.793,114.785,171.856,101.823,171.856,101.823Z" transform="translate(-171.573 -96.642)"/></g><g transform="translate(165.451 137.52)"><path class="d" d="M136.322,101.823s-7.873-9.493-10.728-2.779c-.155.363-1.159,13.277,9.8,15.361C137.387,114.785,136.322,101.823,136.322,101.823Z" transform="translate(-125.501 -96.642)"/></g><g transform="translate(223.131 151.348)"><g class="o"><path class="p" d="M175.233,114.584c-3.244,2.752-8.534,3.459-11.816,1.577s-3.311-5.64-.065-8.393,8.534-3.459,11.814-1.577S178.479,111.831,175.233,114.584Z" transform="translate(-160.938 -105.138)"/></g><g class="q" transform="translate(0.243 0.175)"><path class="p" d="M174.967,114.417c-3.15,2.673-8.285,3.36-11.472,1.532s-3.215-5.476-.063-8.148,8.285-3.36,11.472-1.532S178.118,111.745,174.967,114.417Z" transform="translate(-161.087 -105.245)"/></g><g class="r" transform="translate(0.486 0.35)"><path class="p" d="M174.7,114.25c-3.055,2.595-8.038,3.259-11.129,1.486s-3.119-5.311-.062-7.9,8.038-3.259,11.129-1.486S177.758,111.657,174.7,114.25Z" transform="translate(-161.236 -105.353)"/></g><g class="s" transform="translate(0.728 0.525)"><path class="p" d="M174.435,114.083c-2.961,2.513-7.79,3.159-10.785,1.441s-3.023-5.148-.06-7.662,7.79-3.158,10.785-1.439S177.4,111.572,174.435,114.083Z" transform="translate(-161.385 -105.46)"/></g><g class="t" transform="translate(0.971 0.701)"><path class="p" d="M174.169,113.918c-2.866,2.433-7.543,3.057-10.442,1.393s-2.927-4.984-.059-7.418,7.543-3.057,10.442-1.393S177.037,111.485,174.169,113.918Z" transform="translate(-161.534 -105.568)"/></g><g class="u" transform="translate(1.214 0.876)"><path class="p" d="M173.9,113.751c-2.772,2.354-7.294,2.956-10.1,1.348s-2.831-4.82-.057-7.173,7.294-2.958,10.1-1.348S176.676,111.4,173.9,113.751Z" transform="translate(-161.683 -105.676)"/></g><g class="v" transform="translate(1.456 1.052)"><path class="p" d="M173.636,113.584c-2.678,2.274-7.046,2.857-9.757,1.3s-2.733-4.657-.054-6.929,7.046-2.857,9.757-1.3S176.315,111.312,173.636,113.584Z" transform="translate(-161.832 -105.784)"/></g><g class="w" transform="translate(1.699 1.227)"><path class="p" d="M173.37,113.417c-2.585,2.194-6.8,2.756-9.413,1.257s-2.637-4.493-.052-6.685,6.8-2.757,9.413-1.257S175.955,111.225,173.37,113.417Z" transform="translate(-161.981 -105.892)"/></g><g class="x" transform="translate(1.942 1.403)"><path class="p" d="M173.1,113.25c-2.49,2.114-6.55,2.656-9.07,1.211s-2.541-4.328-.05-6.443,6.55-2.655,9.07-1.209S175.594,111.137,173.1,113.25Z" transform="translate(-162.131 -106)"/></g><g class="y" transform="translate(2.184 1.578)"><path class="p" d="M172.838,113.085c-2.4,2.033-6.3,2.554-8.726,1.164s-2.447-4.165-.049-6.2,6.3-2.556,8.726-1.164S175.236,111.05,172.838,113.085Z" transform="translate(-162.279 -106.107)"/></g><g class="z" transform="translate(2.426 1.753)"><path class="p" d="M172.572,112.918c-2.3,1.953-6.055,2.455-8.383,1.118s-2.35-4-.047-5.954,6.055-2.455,8.383-1.12S174.875,110.965,172.572,112.918Z" transform="translate(-162.428 -106.215)"/></g><g class="aa" transform="translate(2.67 1.929)"><path class="p" d="M172.306,112.751c-2.207,1.874-5.808,2.354-8.039,1.073s-2.254-3.837-.046-5.71,5.808-2.355,8.039-1.074S174.514,110.878,172.306,112.751Z" transform="translate(-162.578 -106.322)"/></g><g class="ab" transform="translate(2.912 2.104)"><path class="p" d="M172.04,112.584c-2.113,1.794-5.559,2.254-7.7,1.029s-2.157-3.675-.042-5.468,5.559-2.254,7.7-1.029S174.154,110.79,172.04,112.584Z" transform="translate(-162.726 -106.43)"/></g><g class="ac" transform="translate(3.154 2.28)"><path class="p" d="M171.774,112.417a6.941,6.941,0,0,1-7.354.983c-2.043-1.172-2.061-3.511-.041-5.225a6.944,6.944,0,0,1,7.354-.982C173.774,108.366,173.794,110.7,171.774,112.417Z" transform="translate(-162.875 -106.538)"/></g><g class="ad" transform="translate(3.398 2.455)"><path class="p" d="M171.507,112.252a6.617,6.617,0,0,1-7.011.936c-1.947-1.117-1.965-3.347-.039-4.981a6.614,6.614,0,0,1,7.011-.936C173.415,108.388,173.433,110.618,171.507,112.252Z" transform="translate(-163.025 -106.646)"/></g><g class="ae" transform="translate(3.64 2.631)"><path class="p" d="M171.241,112.085a6.294,6.294,0,0,1-6.667.89c-1.852-1.063-1.869-3.182-.037-4.737a6.294,6.294,0,0,1,6.667-.89C173.056,108.411,173.072,110.53,171.241,112.085Z" transform="translate(-163.174 -106.754)"/></g><g class="af" transform="translate(3.883 2.806)"><path class="p" d="M170.975,111.918a5.968,5.968,0,0,1-6.324.845c-1.756-1.008-1.773-3.019-.036-4.493a5.964,5.964,0,0,1,6.324-.845C172.7,108.433,172.712,110.445,170.975,111.918Z" transform="translate(-163.323 -106.861)"/></g><g class="ag" transform="translate(4.126 2.981)"><path class="p" d="M170.709,111.751a5.644,5.644,0,0,1-5.982.8c-1.66-.952-1.675-2.855-.033-4.248a5.641,5.641,0,0,1,5.98-.8C172.337,108.455,172.351,110.358,170.709,111.751Z" transform="translate(-163.472 -106.969)"/></g><g class="ah" transform="translate(4.368 3.156)"><path class="p" d="M170.443,111.584a5.317,5.317,0,0,1-5.638.754c-1.566-.9-1.579-2.692-.031-4a5.317,5.317,0,0,1,5.638-.754C171.978,108.479,171.991,110.271,170.443,111.584Z" transform="translate(-163.621 -107.077)"/></g><g class="ai" transform="translate(4.611 3.332)"><path class="p" d="M170.176,111.419a5,5,0,0,1-5.3.706c-1.47-.843-1.483-2.528-.029-3.762a5,5,0,0,1,5.3-.706C171.617,108.5,171.63,110.185,170.176,111.419Z" transform="translate(-163.77 -107.185)"/></g><g class="aj" transform="translate(4.853 3.507)"><path class="p" d="M169.911,111.252a4.673,4.673,0,0,1-4.952.661c-1.375-.789-1.388-2.363-.028-3.518a4.67,4.67,0,0,1,4.952-.661C171.258,108.522,171.271,110.1,169.911,111.252Z" transform="translate(-163.919 -107.292)"/></g><g transform="translate(5.096 3.683)"><path class="p" d="M169.645,111.085a4.347,4.347,0,0,1-4.608.615c-1.281-.734-1.292-2.2-.026-3.273a4.347,4.347,0,0,1,4.608-.615C170.9,108.546,170.911,110.011,169.645,111.085Z" transform="translate(-164.068 -107.4)"/></g></g><g transform="translate(177.789 151.347)"><g class="o" transform="translate(0)"><path class="p" d="M135.327,114.415c3.137,2.875,8.4,3.783,11.746,2.027s3.524-5.51.386-8.384-8.4-3.781-11.746-2.025S132.189,111.541,135.327,114.415Z" transform="translate(-133.082 -105.137)"/></g><g class="q" transform="translate(0.242 0.177)"><path class="p" d="M135.41,114.256c3.045,2.79,8.152,3.671,11.406,1.966s3.421-5.349.374-8.14-8.152-3.672-11.406-1.966S132.362,111.464,135.41,114.256Z" transform="translate(-133.23 -105.246)"/></g><g class="r" transform="translate(0.483 0.354)"><path class="p" d="M135.492,114.095c2.954,2.707,7.909,3.561,11.065,1.908s3.317-5.189.363-7.9-7.909-3.563-11.065-1.909S132.538,111.386,135.492,114.095Z" transform="translate(-133.379 -105.354)"/></g><g class="s" transform="translate(0.725 0.531)"><path class="p" d="M135.575,113.933c2.865,2.624,7.665,3.452,10.723,1.849s3.216-5.028.353-7.654-7.665-3.451-10.723-1.849S132.712,111.31,135.575,113.933Z" transform="translate(-133.527 -105.463)"/></g><g class="t" transform="translate(0.966 0.709)"><path class="p" d="M135.658,113.772c2.774,2.541,7.422,3.343,10.383,1.792s3.114-4.87.342-7.411-7.422-3.342-10.383-1.79S132.886,111.233,135.658,113.772Z" transform="translate(-133.675 -105.572)"/></g><g class="u" transform="translate(1.207 0.886)"><path class="p" d="M135.742,113.613c2.681,2.456,7.177,3.233,10.04,1.732s3.013-4.709.33-7.167-7.177-3.233-10.04-1.732S133.06,111.155,135.742,113.613Z" transform="translate(-133.823 -105.681)"/></g><g class="v" transform="translate(1.449 1.063)"><path class="p" d="M135.825,113.452c2.59,2.373,6.933,3.122,9.7,1.673s2.909-4.549.319-6.923-6.933-3.124-9.7-1.673S133.235,111.079,135.825,113.452Z" transform="translate(-133.972 -105.79)"/></g><g class="w" transform="translate(1.69 1.24)"><path class="p" d="M135.907,113.291c2.5,2.29,6.69,3.013,9.359,1.615s2.806-4.39.308-6.68-6.69-3.013-9.359-1.613S133.409,111,135.907,113.291Z" transform="translate(-134.12 -105.899)"/></g><g class="x" transform="translate(1.932 1.418)"><path class="p" d="M135.992,113.131c2.407,2.206,6.444,2.9,9.016,1.554s2.705-4.229.3-6.436-6.444-2.9-9.016-1.554S133.582,110.924,135.992,113.131Z" transform="translate(-134.268 -106.008)"/></g><g class="y" transform="translate(2.173 1.595)"><path class="p" d="M136.074,112.97c2.316,2.123,6.2,2.793,8.676,1.5s2.6-4.069.285-6.192-6.2-2.793-8.676-1.5S133.756,110.847,136.074,112.97Z" transform="translate(-134.416 -106.117)"/></g><g class="z" transform="translate(2.414 1.772)"><path class="p" d="M136.157,112.809c2.227,2.04,5.958,2.684,8.336,1.437s2.5-3.908.273-5.948-5.957-2.684-8.336-1.439S133.93,110.769,136.157,112.809Z" transform="translate(-134.565 -106.225)"/></g><g class="aa" transform="translate(2.656 1.948)"><path class="p" d="M136.24,112.648c2.136,1.957,5.715,2.573,7.994,1.379s2.4-3.749.264-5.705-5.715-2.573-7.994-1.379S134.106,110.693,136.24,112.648Z" transform="translate(-134.713 -106.334)"/></g><g class="ab" transform="translate(2.897 2.127)"><path class="p" d="M136.323,112.488c2.044,1.872,5.471,2.463,7.654,1.32s2.3-3.591.251-5.463-5.469-2.463-7.652-1.32S134.28,110.615,136.323,112.488Z" transform="translate(-134.861 -106.443)"/></g><g class="ac" transform="translate(3.138 2.303)"><path class="p" d="M136.407,112.327a6.941,6.941,0,0,0,7.312,1.261c2.085-1.094,2.193-3.43.239-5.219a6.938,6.938,0,0,0-7.312-1.261C134.561,108.2,134.454,110.538,136.407,112.327Z" transform="translate(-135.009 -106.552)"/></g><g class="ad" transform="translate(3.379 2.48)"><path class="p" d="M136.49,112.166a6.616,6.616,0,0,0,6.97,1.2c1.989-1.042,2.092-3.27.23-4.976a6.615,6.615,0,0,0-6.97-1.2C134.73,108.234,134.628,110.46,136.49,112.166Z" transform="translate(-135.158 -106.661)"/></g><g class="ae" transform="translate(3.621 2.658)"><path class="p" d="M136.572,112a6.291,6.291,0,0,0,6.63,1.144c1.89-.991,1.987-3.109.218-4.732a6.294,6.294,0,0,0-6.63-1.143C134.9,108.266,134.8,110.384,136.572,112Z" transform="translate(-135.306 -106.77)"/></g><g class="af" transform="translate(3.862 2.835)"><path class="p" d="M136.655,111.846a5.973,5.973,0,0,0,6.29,1.084c1.792-.939,1.885-2.949.207-4.488a5.97,5.97,0,0,0-6.29-1.084C135.07,108.3,134.977,110.306,136.655,111.846Z" transform="translate(-135.454 -106.878)"/></g><g class="ag" transform="translate(4.104 3.013)"><path class="p" d="M136.739,111.684a5.643,5.643,0,0,0,5.946,1.025c1.7-.889,1.784-2.788.2-4.243a5.643,5.643,0,0,0-5.946-1.025C135.238,108.329,135.151,110.229,136.739,111.684Z" transform="translate(-135.603 -106.988)"/></g><g class="ah" transform="translate(4.345 3.189)"><path class="p" d="M136.822,111.523a5.32,5.32,0,0,0,5.606.967c1.6-.838,1.681-2.629.184-4a5.326,5.326,0,0,0-5.606-.967C135.408,108.361,135.325,110.153,136.822,111.523Z" transform="translate(-135.751 -107.096)"/></g><g class="ai" transform="translate(4.586 3.366)"><path class="p" d="M136.9,111.364a5,5,0,0,0,5.264.907c1.5-.786,1.579-2.468.174-3.757a5,5,0,0,0-5.264-.908C135.577,108.393,135.5,110.075,136.9,111.364Z" transform="translate(-135.899 -107.205)"/></g><g class="aj" transform="translate(4.828 3.543)"><path class="p" d="M136.989,111.2a4.671,4.671,0,0,0,4.922.85c1.4-.736,1.476-2.31.161-3.514a4.671,4.671,0,0,0-4.922-.85C135.745,108.424,135.674,110,136.989,111.2Z" transform="translate(-136.048 -107.314)"/></g><g transform="translate(5.069 3.72)"><path class="p" d="M137.072,111.042a4.351,4.351,0,0,0,4.582.791c1.307-.685,1.374-2.15.15-3.27a4.348,4.348,0,0,0-4.582-.791C135.915,108.457,135.848,109.92,137.072,111.042Z" transform="translate(-136.196 -107.423)"/></g></g><g class="ak" transform="translate(233.697 154.474)"><path class="al" d="M169.625,107.652c.093.438-.319.9-.921,1.029a1,1,0,0,1-1.262-.56c-.094-.438.317-.9.92-1.029A1,1,0,0,1,169.625,107.652Z" transform="translate(-167.429 -107.058)"/></g><g class="ak" transform="translate(188.096 154.971)"><path class="al" d="M141.517,108.665a1,1,0,0,1-1.344.313c-.568-.239-.887-.77-.711-1.183a1,1,0,0,1,1.345-.313C141.373,107.722,141.692,108.251,141.517,108.665Z" transform="translate(-139.413 -107.364)"/></g><g transform="translate(232.887 102.788)"><path class="h" d="M166.931,75.3c.091.05.181.1.272.151C167.113,75.4,167.022,75.355,166.931,75.3Z" transform="translate(-166.931 -75.305)"/></g><g transform="translate(232.887 102.788)"><path class="h" d="M166.931,75.3c.091.05.181.1.272.151C167.113,75.4,167.022,75.355,166.931,75.3Z" transform="translate(-166.931 -75.305)"/></g><g transform="translate(161.706 125.719)"><path class="am" d="M123.2,89.734l.295-.341-.28.265Z" transform="translate(-123.201 -89.393)"/></g><g transform="translate(183.358 98.019)"><path class="h" d="M197.349,114.2c-3.786-3.908-9.018-6.018-14.191-7.725-8-2.648-16.237-4.572-24.116-7.543S143.5,91.857,137.864,85.608a8.151,8.151,0,0,1-.77-.985,2.618,2.618,0,0,1-.493-2.263,3.471,3.471,0,0,1,1.263-1.493c5.71-4.541,12.774-6.819,20.07-7.82a73.066,73.066,0,0,1,8.972-.661c2-.031,4.017-.016,6.019.153a30.11,30.11,0,0,1,6.8,1.323,28.623,28.623,0,0,1,4.494,1.986,54.131,54.131,0,0,1,6.664,4.418c1.032.77,2.062,1.585,3.063,2.416.584.493,1.154.986,1.707,1.494,3.848,3.493,7.081,7.587,8.2,12.574A17.444,17.444,0,0,1,197.349,114.2Z" transform="translate(-136.503 -72.375)"/></g><g transform="translate(167.209 102.333)"><path class="h" d="M145.407,78.315a27.19,27.19,0,0,1-2.948,11.791c-.928,1.721-2.092,3.3-3.143,4.945a44.133,44.133,0,0,0-6.377,16.821,56.994,56.994,0,0,1-4.042-6.791,21.573,21.573,0,0,1-2.067-5.516c-1.043-5.336,1.32-10.886,4.948-14.939s8.4-6.874,13.1-9.6Z" transform="translate(-126.582 -75.025)"/></g><g transform="translate(155.698 105.297)"><path class="h" d="M138.558,76.846c-.493,1.092-.97,2.17-1.463,3.262-.785,1.74-1.554,3.464-2.339,5.188-1.016,2.293-2.048,4.585-3.078,6.864-.124.277-.246.57-.384.846-2.8,6.311-5.526,13.036-4.525,19.839.938,6.433,5.124,12.083,5.832,18.546-.122-.077-.246-.169-.37-.262a29.885,29.885,0,0,1-12.605-26.841c.308-3.309,1.493-6.957,4.48-8.45a19.8,19.8,0,0,1,10.65-17.562A17.372,17.372,0,0,1,138.558,76.846Z" transform="translate(-119.51 -76.846)"/></g><g transform="translate(160.131 137.439)"><path class="h" d="M134.353,96.593s.272.521.788,1.59,1.276,2.681,2.258,4.895a11.325,11.325,0,0,1,.676,1.966,6.133,6.133,0,0,1,.158,1.231,5.264,5.264,0,0,1-.153,1.362,6.4,6.4,0,0,1-1.32,2.533,12.771,12.771,0,0,1-2.1,1.97c-.383.291-.778.575-1.172.851l-1.2.833-2.546,1.753-2.757,1.87c-.479.319-.964.646-1.458.977l-.186.125-.047.031c-.015.01,0,0-.008,0h0l0,0,.007.008c.011.01-.029-.015.1.067a6.605,6.605,0,0,0,1.224.661c.464.205.991.391,1.546.6a17.685,17.685,0,0,1,1.773.744,6.778,6.778,0,0,1,1.841,1.3,4.842,4.842,0,0,1,1.222,2.184,5.727,5.727,0,0,1,.041,2.435,7.448,7.448,0,0,1-.8,2.2,22.146,22.146,0,0,1-2.608,3.459,12.414,12.414,0,0,0-2.139,3.42,6.535,6.535,0,0,0-.444,1.957c-.015.168-.008.335-.008.5a4.891,4.891,0,0,0,.046.49,4.634,4.634,0,0,0,.267.977,4.537,4.537,0,0,0,1.191,1.7,4.3,4.3,0,0,0,.42.324,3.66,3.66,0,0,0,.466.251,3.341,3.341,0,0,0,.5.181,3.21,3.21,0,0,0,.531.08c.259.015.291.055.094.114a1.632,1.632,0,0,1-.477.076l-.177.008-.2-.018c-.07-.007-.145-.011-.221-.024l-.236-.052a3.978,3.978,0,0,1-.529-.173,4.337,4.337,0,0,1-.568-.3,4.846,4.846,0,0,1-1.162-1.029,5.309,5.309,0,0,1-.921-1.668,6.038,6.038,0,0,1-.277-2.227,10.48,10.48,0,0,1,1.735-4.909c.5-.809,1.081-1.568,1.615-2.334a10.318,10.318,0,0,0,1.3-2.357,4.042,4.042,0,0,0,.163-2.394,2.151,2.151,0,0,0-.207-.49,1.707,1.707,0,0,0-.15-.221l-.078-.111a1.1,1.1,0,0,0-.094-.1,2.3,2.3,0,0,0-.2-.2c-.078-.062-.155-.124-.23-.189a5.13,5.13,0,0,0-.565-.339,30.988,30.988,0,0,0-3.133-1.2,10.766,10.766,0,0,1-1.875-.915l-.238-.156-.117-.08-.031-.02-.042-.037-.085-.073-.677-.6a2.327,2.327,0,0,1-.643-1.54,2.193,2.193,0,0,1,.493-1.371,3.177,3.177,0,0,1,.566-.547c.106-.083.218-.161.332-.238l.246-.161,1.4-.908q1.416-.906,2.868-1.831t2.953-1.838c.495-.3.995-.609,1.494-.915s.962-.607,1.41-.934a6.678,6.678,0,0,0,2.134-2.282,3.676,3.676,0,0,0,.387-1.447,6.164,6.164,0,0,0-.166-1.641c-.125-.566-.3-1.144-.47-1.734s-.337-1.177-.506-1.766q-.5-1.773-.975-3.56Z" transform="translate(-122.233 -96.593)"/></g><g transform="translate(235.911 133.391)"><path class="h" d="M173.721,94.106l.225.024c.075.008.171.016.283.036l.391.1c.148.044.306.117.488.189a4.838,4.838,0,0,1,.555.321,4.679,4.679,0,0,1,1.169,1.136,6.075,6.075,0,0,1,.931,1.88c.064.186.1.386.145.588s.07.415.091.635a6.544,6.544,0,0,1-.031,1.379,9.52,9.52,0,0,1-.871,2.871,18.69,18.69,0,0,1-1.727,2.827c-.676.934-1.408,1.844-2.083,2.821a11.284,11.284,0,0,0-1.618,3.129c-.036.137-.078.286-.107.415a3.317,3.317,0,0,0-.062.374,2.379,2.379,0,0,0,.018.672,1.168,1.168,0,0,0,.068.228.581.581,0,0,0,.075.12.458.458,0,0,0,.264.132,4.31,4.31,0,0,0,.866.07c.19,0,.409,0,.641.018s.459.029.689.057a10.564,10.564,0,0,1,2.733.7,10.456,10.456,0,0,1,2.552,1.473,7.457,7.457,0,0,1,1.146,1.115,5.46,5.46,0,0,1,1.26,3.2,7.748,7.748,0,0,1-.093,1.66,20.021,20.021,0,0,1-.8,2.972c-.156.47-.293.926-.422,1.388-.065.233-.117.469-.177.7s-.1.477-.151.718a19.734,19.734,0,0,0-.345,3,20.257,20.257,0,0,0,.783,6.381c.1.348-.007.273-.282-.19a12.743,12.743,0,0,1-1.1-2.611,18.025,18.025,0,0,1-.8-5.035,18.991,18.991,0,0,1,.234-3.316c.189-1.188.527-2.365.715-3.518a4.734,4.734,0,0,0-.283-3.088,4.06,4.06,0,0,0-1.05-1.17,8.021,8.021,0,0,0-1.581-.952,8.613,8.613,0,0,0-1.831-.6,8.419,8.419,0,0,0-.972-.142c-.332-.033-.632-.031-1.068-.037a5.5,5.5,0,0,1-1.551-.21,3.218,3.218,0,0,1-.916-.457,3.133,3.133,0,0,1-.744-.773,3.677,3.677,0,0,1-.576-1.779,5.363,5.363,0,0,1,.13-1.6,12.329,12.329,0,0,1,2.619-4.825c1.115-1.366,2.308-2.552,3.283-3.876a10.881,10.881,0,0,0,1.25-2.088,6.873,6.873,0,0,0,.4-1.141,4.856,4.856,0,0,0,.166-1.188,5.4,5.4,0,0,0-.516-2.429,4.33,4.33,0,0,0-.716-1.078,3.521,3.521,0,0,0-1.063-.815Z" transform="translate(-168.789 -94.106)"/></g><g transform="translate(196.071 171.059)"><path class="an" d="M169.706,118.363c-2.835-.234-5.946-1.108-9.276-.972-.991.041-2.124.825-3.115.827-1.387,0-2.91-.882-4.294-.965-1.6-.1-5.472,1.094-8.707,1.439a1.149,1.149,0,0,1,.3.356c1.253,2.077,6.3,6.871,12.244,7.09,4.939.181,11.082-2.2,12.879-7.772Zm-24.064.682h-.01l-.008,0Z" transform="translate(-144.313 -117.248)"/></g><g class="ao" transform="translate(165.973 102.956)"><path class="ap" d="M215.09,107.606a47.311,47.311,0,0,1-.446,6.68c-1.447-1.54-3.648-3.771-6.495-6.373-11.852-10.8-34.954-27.919-62.4-28.057-.708,0-1.416,0-2.139.031a65.408,65.408,0,0,0-7.066.57c-1.123.153-2.277.339-3.417.553-1.462.277-2.94.615-4.416,1.016-.97.247-1.924.524-2.894.832a19.117,19.117,0,0,1,4.971-3.679c.4-.523.832-1.016,1.261-1.509a80.741,80.741,0,0,1,11.482-1.831h.016c.63-.046,1.278-.107,1.955-.155,1.431-.107,2.94-.184,4.554-.23h.016a105.035,105.035,0,0,1,59.44,16.206c1.216.77,2.417,1.571,3.633,2.417A46.886,46.886,0,0,1,215.09,107.606Z" transform="translate(-125.822 -75.408)"/></g><g transform="translate(85.714 186.607)"><path class="aq" d="M83.125,129.864V564.826c0,4.086-6.61,4.086-6.61,0V129.864c0-4.086,6.61-4.086,6.61,0Z" transform="translate(-76.515 -126.799)"/></g><g transform="translate(82.19 182.901)"><rect class="aq" width="13.66" height="32.387" transform="translate(13.66 32.387) rotate(180)"/></g><g transform="translate(77.673 202.412)"><rect class="ar" width="22.693" height="4.601" transform="translate(22.693 4.601) rotate(180)"/></g><g transform="translate(75.164 252.89)"><path class="d" d="M97.5,170.043c-7.239-1.755-16.71-3.132-22.765-2.246a9.123,9.123,0,0,0-3.124.856,2.25,2.25,0,0,0-1.349,2.331,2.064,2.064,0,0,0,1.838,1.359,5.107,5.107,0,0,0-2.064,3.259,2.694,2.694,0,0,0,2.412,2.769,1.839,1.839,0,0,0-1.035,2.35,2.526,2.526,0,0,0,2.648,1.208,1.756,1.756,0,0,0-.269,3.013,6.818,6.818,0,0,0,3.937,1.148,80.756,80.756,0,0,0,12.91-.537,8.5,8.5,0,0,0,3-.656,1.971,1.971,0,0,0,1.273-2.167,1.955,1.955,0,0,0,1.12-3.223c1.895-.233,2.712-2.616,1.247-3.638a3.049,3.049,0,0,0,.82-5.31Z" transform="translate(-70.033 -167.52)"/></g><g transform="translate(101.207 268.941)"><path class="f" d="M299.186,358.447s-28.708-.438-42.394-35.771c0,0-24.735-.889-31.8-37.1,0,0-13.369-3.988-20.693-21.3a58.1,58.1,0,0,1-4.042-15.354s-.08-.265-.238-.768v-.013a225.509,225.509,0,0,1-7.419-39.652,218.647,218.647,0,0,1-7.658,40.433c-3.973,30.471-24.72,36.658-24.72,36.658-7.076,36.207-31.8,37.1-31.8,37.1-13.7,35.333-42.4,35.771-42.4,35.771l62.1-176.376,43.745-4.53v-.16l.729.08.741-.08v.16l24.828,2.569,18.919,1.961,14.361,40.778Z" transform="translate(-86.033 -177.381)"/></g><g transform="translate(161.735 205.739)"><path class="aq" d="M211.3,174.322l-3.643-34.776-11.593-.993s.33,30.139-6.625,33.782c-5.162,2.7-35.366,2.7-40.527,0-6.955-3.643-6.625-33.782-6.625-33.782l-11.593.993-3.643,34.776c-5.479,9.315-3.708,27.457-2.932,33.453h90.111C215.007,201.779,216.778,183.638,211.3,174.322Z" transform="translate(-123.218 -138.553)"/></g><g transform="translate(173.622 422.628)"><g transform="translate(0)"><path class="e" d="M130.54,454.551c-.086.2.132-2.246.61-6.815.495-4.569,1.167-11.269,1.948-19.567s1.61-18.2,2.393-29.19c.75-10.987,1.45-23.052,1.978-35.672.5-12.621.781-24.65.929-35.6.109-10.945.107-20.806,0-29.088s-.218-14.987-.34-19.621c-.042-2.311-.076-4.112-.1-5.337,0-.607,0-1.073,0-1.39a1.963,1.963,0,0,1,.028-.475,11.5,11.5,0,0,1,.234,1.851c.1,1.226.252,3.019.446,5.323.376,4.624.783,11.324,1.151,19.611s.635,18.162.711,29.133c.037,10.971-.127,23.036-.628,35.688-.531,12.652-1.351,24.645-2.284,35.519-.975,10.872-2.027,20.627-3.085,28.808-.49,4.1-1.027,7.792-1.484,11.047s-.872,6.065-1.25,8.37C131.059,451.763,130.612,454.378,130.54,454.551Z" transform="translate(-130.522 -271.799)"/></g></g><g transform="translate(199.591 409.31)"><g transform="translate(0)"><path class="e" d="M159.523,467.459c-.021.244-.539-2.45-1.437-7.5-.918-5.051-2.118-12.477-3.449-21.7s-2.718-20.255-3.985-32.512c-1.226-12.258-2.324-25.743-3.08-39.86-.721-14.117-1.034-27.584-1.1-39.829-.015-12.247.194-23.275.563-32.527.138-4.628.387-8.809.573-12.481s.387-6.833.579-9.416.347-4.58.451-5.944c.06-.676.107-1.191.138-1.543a2.756,2.756,0,0,1,.077-.526,1.836,1.836,0,0,1,.041.531c0,.356,0,.874,0,1.553-.023,1.369-.057,3.376-.1,5.957-.067,2.586-.142,5.751-.182,9.425s-.158,7.854-.161,12.478c-.1,9.244-.055,20.252.145,32.47.247,12.218.676,25.645,1.395,39.726.755,14.082,1.719,27.429,2.73,39.544,1.066,12.11,2.137,22.99,3.192,32.127.48,4.574,1.011,8.7,1.444,12.343s.819,6.786,1.164,9.368C159.192,464.308,159.54,467.253,159.523,467.459Z" transform="translate(-146.476 -263.617)"/></g></g><g transform="translate(224.876 442.098)"><path class="e" d="M196.508,459.322c-.057.231-.9-2.025-2.339-6.291s-3.438-10.551-5.743-18.388c-4.615-15.672-10.323-37.609-15.1-61.932-4.764-24.326-7.737-46.587-9.376-62.736-.825-8.075-1.364-14.624-1.634-19.157-.142-2.266-.234-4.027-.277-5.223a7.529,7.529,0,0,1,.023-1.833c.155-.018.676,2.445,1.462,6.913.767,4.48,1.872,10.94,3.236,18.914,2.7,15.968,6.591,37.973,11.334,62.187,4.759,24.209,9.379,45.894,12.856,61.623,1.735,7.859,3.143,14.241,4.13,18.709S196.556,459.125,196.508,459.322Z" transform="translate(-162.01 -283.761)"/></g><g transform="translate(170.576 291.027)"><g transform="translate(0)"><path class="e" d="M128.669,280.161a20.792,20.792,0,0,1,.454-3.348c.381-2.251.931-5.518,1.611-9.545,1.369-8.091,3.155-19.3,4.859-31.609s3.011-23.477,3.889-31.583c.438-4.035.793-7.315,1.042-9.605.133-1.125.239-2,.313-2.613a3.9,3.9,0,0,1,.168-.908,20.8,20.8,0,0,1,.127,3.555c.01,2.287-.062,5.595-.234,9.678-.342,8.166-1.191,19.443-2.9,31.809s-3.968,23.356-5.86,31.262c-.942,3.954-1.771,7.144-2.4,9.361S128.738,280.085,128.669,280.161Z" transform="translate(-128.65 -190.95)"/></g></g><g transform="translate(144.304 295.435)"><path class="e" d="M112.527,325.312a44.781,44.781,0,0,1,.689-4.934c.542-3.312,1.333-8.144,2.31-14.116,1.971-11.967,4.636-28.549,7.395-46.716s5.1-34.641,6.76-46.577c.835-5.954,1.511-10.784,1.981-14.137.247-1.662.441-2.956.573-3.841a8.364,8.364,0,0,1,.259-1.333,6.03,6.03,0,0,1,0,1.359c-.052.9-.129,2.2-.226,3.881-.22,3.366-.614,8.231-1.177,14.236-1.125,12.009-3.011,28.575-5.769,46.778s-5.879,34.446-8.367,46.182c-1.242,5.868-2.306,10.614-3.094,13.92S112.6,325.193,112.527,325.312Z" transform="translate(-112.51 -193.658)"/></g><g transform="translate(233.395 295.539)"><path class="e" d="M178.779,272.193a15.763,15.763,0,0,1-.715-2.886c-.412-1.948-.978-4.812-1.638-8.363-1.32-7.107-3.016-16.972-4.606-27.81s-2.787-20.684-3.557-27.823c-.386-3.57-.664-6.462-.832-8.466l-.168-2.31a3.075,3.075,0,0,1,0-.814,16.289,16.289,0,0,1,.77,3.041c.42,1.966.982,4.82,1.633,8.35,1.3,7.063,2.967,16.837,4.556,27.67s2.766,20.6,3.526,27.7c.379,3.552.656,6.436.827,8.454A32.545,32.545,0,0,1,178.779,272.193Z" transform="translate(-167.243 -193.722)"/></g><g transform="translate(251.202 321.161)"><path class="e" d="M204.725,297.528a21.675,21.675,0,0,1-1.592-3.063c-1.016-2.083-2.424-5.173-4.079-9.039a296.665,296.665,0,0,1-18.867-62.586c-.752-4.11-1.284-7.449-1.592-9.766-.147-1.149-.26-2.048-.34-2.669a3.91,3.91,0,0,1-.059-.941,21.959,21.959,0,0,1,1,3.495c.568,2.287,1.38,5.557,2.381,9.581,2.02,8.08,4.966,19.188,8.62,31.337s7.287,22.959,10.035,30.775c1.379,3.89,2.5,7.058,3.291,9.289C204.313,296.153,204.734,297.424,204.725,297.528Z" transform="translate(-178.183 -209.463)"/></g><g transform="translate(176.284 235.056)"><path class="as" d="M153.238,171.458c.068.1-1.594.444-4.344.475a35.144,35.144,0,0,1-4.823-.293,20.671,20.671,0,0,1-5.873-1.493,9.824,9.824,0,0,1-4.663-4.3A11.814,11.814,0,0,1,132.188,161a13.044,13.044,0,0,1,.182-3.283,2.864,2.864,0,0,1,.35-1.156c.19.007.2,1.716.866,4.206a13.122,13.122,0,0,0,1.768,3.977,9.022,9.022,0,0,0,3.856,3.192,29.9,29.9,0,0,0,5.205,1.621c1.681.409,3.211.734,4.509,1A43.764,43.764,0,0,1,153.238,171.458Z" transform="translate(-132.157 -156.564)"/></g><g transform="translate(172.117 254.421)"><g transform="translate(0)"><path class="as" d="M153.2,169.33c.062.12-1.392.4-3.723.7a88.366,88.366,0,0,0-8.83,1.428,26.13,26.13,0,0,0-8.01,3.233c-1.9,1.208-2.912,2.293-3.026,2.206-.106-.06.4-1.527,2.126-3.3a17.3,17.3,0,0,1,8.35-4.5,28.167,28.167,0,0,1,9.286-.44A16.643,16.643,0,0,1,153.2,169.33Z" transform="translate(-129.597 -168.461)"/></g></g><g transform="translate(198.261 245.159)"><g transform="translate(0)"><path class="as" d="M156.36,187.767a36.218,36.218,0,0,0-3.555-2.686,30.3,30.3,0,0,1-4.2-2.949,9.255,9.255,0,0,1-2.038-2.606,8.84,8.84,0,0,1-.9-3.475,14.5,14.5,0,0,1,4.325-10.683,12.956,12.956,0,0,1,2.761-2.1,3.03,3.03,0,0,1,1.172-.49c.112.155-1.3,1.265-2.845,3.5a17.98,17.98,0,0,0-2.121,4.17,14.584,14.584,0,0,0-.866,5.455c.036,3.858,3.446,6.039,5.481,8.033a13.45,13.45,0,0,1,2.237,2.626A3.543,3.543,0,0,1,156.36,187.767Z" transform="translate(-145.658 -162.771)"/></g></g><g transform="translate(218.592 237.737)"><path class="as" d="M177.773,158.211c.122-.013-.155,1.473-1.069,3.742a30.1,30.1,0,0,1-1.9,3.854,17.01,17.01,0,0,1-3.366,4.25,10.325,10.325,0,0,1-5.057,2.425,14.872,14.872,0,0,1-4.4.059,11.949,11.949,0,0,1-3.832-.921c.007-.173,1.522-.282,3.848-.5,2.316-.238,5.441-.7,7.842-2.9a24.466,24.466,0,0,0,3.19-3.566c.931-1.213,1.745-2.336,2.427-3.291A31.411,31.411,0,0,1,177.773,158.211Z" transform="translate(-158.149 -158.211)"/></g><g transform="translate(224.193 254.492)"><path class="as" d="M178.014,168.505c.1-.024.075,1.152-1.061,2.639a9.02,9.02,0,0,1-6.241,3.216,14.361,14.361,0,0,1-6.683-1.175,7.253,7.253,0,0,1-2.438-1.341c.039-.156,1.113-.161,2.762-.039a38.49,38.49,0,0,0,6.137.137,12.422,12.422,0,0,0,5.479-1.756A22.894,22.894,0,0,0,178.014,168.505Z" transform="translate(-161.59 -168.505)"/></g><g transform="translate(61.861 105.88)"><path class="aq" d="M93.147,159.013l23.032-37.426L89.02,77.2,61.861,121.586l23.032,37.426Z" transform="translate(-61.861 -77.204)"/></g><g transform="translate(90.402 114.14)"><path class="at" d="M98.83,113.857c-.054.133-1.4-1.48-3.405-4.211s-4.663-6.584-7.343-10.94-4.9-8.428-6.421-11.43A29.62,29.62,0,0,1,79.4,82.282c.13-.083,1.475,1.52,3.457,4.239s4.6,6.548,7.291,10.912,4.88,8.415,6.389,11.4A36.41,36.41,0,0,1,98.83,113.857Z" transform="translate(-79.395 -82.279)"/></g><g class="au" transform="translate(88.948 127.85)"><path class="at" d="M79.716,154.068c-.231.295-1.214-14.184-1.214-31.684S79.485,90.7,79.716,90.7c.313,0,1.214,14.184,1.214,31.682S79.913,153.817,79.716,154.068Z" transform="translate(-78.502 -90.702)"/></g><g transform="translate(160.209 31.523)"><g transform="translate(13.325 48.438)"><ellipse class="aq" cx="33.199" cy="20.043" rx="33.199" ry="20.043"/></g><g transform="translate(12.708 15.589)"><path class="aq" d="M187.457,55.948C176.955,44.071,170.2,41.1,170.2,41.1l-6.075,1.2-6.073-1.2S151.3,44.071,140.8,55.948c-9.377,10.6-10.974,31.239-10.676,40.828h68.015C198.433,87.188,196.836,66.553,187.457,55.948Z" transform="translate(-130.088 -41.1)"/></g><g transform="translate(35.588 6.183)"><ellipse class="aq" cx="11.16" cy="8.972" rx="11.16" ry="8.972"/></g><g transform="translate(40.371)"><path class="aq" d="M159.836,36.65c0,2.832-2.855,5.127-6.377,5.127s-6.376-2.3-6.376-5.127,2.855-5.127,6.376-5.127S159.836,33.818,159.836,36.65Z" transform="translate(-147.083 -31.523)"/></g><g transform="translate(0 50.665)"><path class="aq" d="M215.755,99.441a26.673,26.673,0,0,1-.181,3.295c-7.833-9.82-25.726-16.7-46.545-16.7s-38.712,6.882-46.547,16.725a27.377,27.377,0,0,1-.2-3.317A29.826,29.826,0,0,1,125.5,86.033v-.021c.27-.579.586-1.115.9-1.672a37.7,37.7,0,0,1,8.891-10.356c8.508-6.993,20.482-11.336,33.74-11.336a55.627,55.627,0,0,1,25.5,5.969,43.935,43.935,0,0,1,8.238,5.389,37.917,37.917,0,0,1,8.485,9.665c.383.6.721,1.224,1.058,1.87A29.909,29.909,0,0,1,215.755,99.441Z" transform="translate(-122.281 -62.649)"/></g><g transform="translate(3.218 52.157)"><path class="av" d="M167.946,74.589l-32.524,8.085-11.165,2.762c.27-.579.586-1.115.9-1.672l8.6-4.076L167.9,63.566Z" transform="translate(-124.258 -63.566)"/><g transform="translate(43.643)"><path class="av" d="M194.239,84.967l-9.566-2.293-33.557-8.085-.046-11.023,33.9,15.722,8.215,3.809C193.564,83.7,193.9,84.321,194.239,84.967Z" transform="translate(-151.07 -63.566)"/></g></g><g transform="translate(24.696 32.144)"><path class="av" d="M139.051,74.338c-.055.155-1.52-1.061-1.6-3.967-.086-2.86,1.594-6.521,4.333-9.353,2.63-2.707,5-4.673,6.332-6.478,1.375-1.755,1.789-3.278,2.022-3.268.208-.037.916,1.623.156,4.286-.7,2.658-2.975,5.663-5.5,8.253a24.153,24.153,0,0,0-5.025,6.833A14.5,14.5,0,0,0,139.051,74.338Z" transform="translate(-137.453 -51.271)"/></g><g transform="translate(16.103 51.596)"><path class="av" d="M152.392,63.249c.132.155-.612,1.195-1.532,3.042a13.6,13.6,0,0,1-2.274,3.288,10.138,10.138,0,0,1-4.678,2.544c-3.522.822-6.3.464-8.287.581-2,.008-3.3.348-3.431.161-.147-.171.693-1.473,2.808-2.463,2.064-1.063,5.155-1.569,7.868-2.23a12.867,12.867,0,0,0,3.405-1.3c.957-.568,1.891-1.382,2.766-2.027C150.789,63.465,152.293,63.11,152.392,63.249Z" transform="translate(-132.174 -63.221)"/></g><g transform="translate(53.34 32.934)"><path class="av" d="M165.446,64.164c.028.083-.174.309-.68.466a3.618,3.618,0,0,1-2.272-.155c-1.882-.643-3.618-2.682-4.732-4.536-2.42-3.92-2.956-7.96-2.621-8.161.451-.273,3.723,2.114,6.143,6.034,1.245,2.072,1.76,3.675,2.489,4.727A6.74,6.74,0,0,0,165.446,64.164Z" transform="translate(-155.05 -51.756)"/></g><g transform="translate(55.715 49.919)"><path class="av" d="M172.22,70.325c-.156.176-1.148-.378-2.6-.693-1.462-.348-3.461-.422-5.988-.905a14.278,14.278,0,0,1-3.649-1.234,7.144,7.144,0,0,1-2.652-2.263c-1.131-1.747-.8-3.006-.687-3.028.282-.122,1.069.737,2.323,1.278a28.279,28.279,0,0,0,5.5,1.25,12.566,12.566,0,0,1,6.286,2.884C172.155,68.993,172.3,70.247,172.22,70.325Z" transform="translate(-156.509 -62.191)"/></g><g class="aw" transform="translate(58.82 28.785)"><path class="at" d="M171.921,80.205c-4.354-.913-5.025-2.3-5.093-4.563-.023-2.228.282-6.058-1.747-9.838-2-3.724-4.151-7.242-5.433-10.164s-1.67-5.173-.632-6.05,3.231-.244,5.992,1.654a29.287,29.287,0,0,1,8.77,9.993c2.614,4.81,4.037,9.942,3.555,13.771C176.885,78.866,174.863,80.842,171.921,80.205Z" transform="translate(-158.417 -49.207)"/></g></g><g transform="translate(209.792 132.46)"><g transform="translate(0)"><path class="ax" d="M155.716,94.333c-.215,5.616-.54,11.34.278,16.92a7.047,7.047,0,0,0,3.112,4.729c6.27,4.628-2.539,7.157-5.764,7.693-1.051.176-.6,1.771.441,1.6,2.582-.43,11.625-3.236,8.935-7.689a16.162,16.162,0,0,0-3.41-3.636c-2.191-1.953-1.981-5.041-2.095-7.683-.171-3.972.007-7.961.158-11.93.042-1.068-1.615-1.065-1.655,0Z" transform="translate(-152.742 -93.534)"/></g></g><g class="ay" transform="translate(215.197 238.681)"><path class="h" d="M225.549,199.767c-4.094,7.883-10.426,20.059-16.958,32.631-.371.7-.728,1.4-1.1,2.119-11.9,22.881-24.1,46.369-24.549,47.271-.887,1.774-14.137,0-14.137,0a24.927,24.927,0,0,1-8.464-5.844,58.1,58.1,0,0,1-4.042-15.354s-.08-.265-.238-.768v-.013c.715-30.312,8.386-52.278,18.149-68.031A96.74,96.74,0,0,1,187.9,174.385a89.189,89.189,0,0,1,20.693-15.594C214.368,171.629,220.476,186.625,225.549,199.767Z" transform="translate(-156.063 -158.791)"/></g><g transform="translate(218.353 233.559)"><path class="aq" d="M320.957,270.759c0,26.47-6.32,50.834-16.932,70.282-14.9,27.277-38.274,44.846-64.546,44.846-44.99,0-81.478-51.549-81.478-115.128,0-27.557,6.85-52.835,18.283-72.641,14.931-25.927,37.692-42.474,63.2-42.474C284.485,155.644,320.957,207.18,320.957,270.759Z" transform="translate(-158.002 -155.644)"/><g transform="translate(9.61 14.467)"><ellipse class="aq" cx="71.541" cy="102.247" rx="71.541" ry="102.247"/></g><g transform="translate(1.833 6.698)"><g transform="translate(142.155 118.75)"><path class="as" d="M246.461,239.877l.138-1.113c.06-.672.138-1.568.218-2.463l.215-2.463.059-1.125,15.537.986s-.026.5-.067,1.253c-.065.75-.151,1.75-.239,2.751s-.177,2-.246,2.749c-.091.749-.153,1.247-.153,1.247Z" transform="translate(-246.461 -232.713)"/></g><g transform="translate(139.413 134.438)"><path class="as" d="M244.777,249.355l.257-1.089c.151-.653.378-1.519.537-2.4.348-1.756.7-3.514.7-3.514l15.31,2.847-.785,3.949c-.181.99-.431,1.968-.6,2.7s-.29,1.226-.29,1.226Z" transform="translate(-244.777 -242.351)"/></g><g transform="translate(134.792 149.698)"><path class="as" d="M241.938,258.449s.173-.409.391-1.04.524-1.465.824-2.3.591-1.677.783-2.318.335-1.063.335-1.063l14.829,4.8s-.151.482-.381,1.2-.537,1.685-.889,2.634-.684,1.9-.939,2.619-.444,1.185-.444,1.185Z" transform="translate(-241.938 -251.726)"/></g><g transform="translate(128.185 164.227)"><path class="as" d="M237.879,266.891s.843-1.541,1.685-3.083l1.571-3.156,14.016,6.854-1.813,3.643-1.953,3.579Z" transform="translate(-237.879 -260.652)"/></g><g transform="translate(119.555 177.571)"><path class="as" d="M232.577,274.361l.677-.84c.4-.509.97-1.152,1.467-1.867l1.41-1.921c.392-.518.63-.884.63-.884l12.739,9.057s-.282.428-.744,1.045-1.065,1.452-1.673,2.28c-.593.84-1.273,1.623-1.75,2.232l-.811,1Z" transform="translate(-232.577 -268.85)"/></g><g transform="translate(108.921 189.13)"><path class="as" d="M226.044,280.387l2.591-2.145,2.492-2.29,10.761,11.386-3.076,2.827c-1.6,1.356-3.231,2.674-3.231,2.674Z" transform="translate(-226.044 -275.951)"/></g><g transform="translate(96.479 198.033)"><path class="as" d="M218.4,284.331l.939-.378,2.022-.978a22.288,22.288,0,0,0,1.992-1.052l.9-.5,7.738,13.67-1.159.654c-.693.4-1.618.92-2.591,1.366l-2.648,1.275-1.242.506Z" transform="translate(-218.4 -281.421)"/></g><g transform="translate(82.819 203.335)"><path class="as" d="M210.008,285.669l.993-.111c.592-.083,1.393-.109,2.178-.269l2.163-.392a5.561,5.561,0,0,0,.71-.15l.267-.07,3.48,15.358-.361.09a9.421,9.421,0,0,1-.957.205l-2.927.532c-1.061.2-2.147.264-2.951.368l-1.346.145Z" transform="translate(-210.008 -284.678)"/></g><g transform="translate(65.176 203.174)"><path class="as" d="M202.866,284.579l.97.252c.584.138,1.377.252,2.162.405a17.3,17.3,0,0,0,2.173.316l.991.107-1.475,15.686-1.344-.147a28.163,28.163,0,0,1-2.943-.428c-1.063-.2-2.134-.371-2.922-.555l-1.309-.33Z" transform="translate(-199.169 -284.579)"/></g><g transform="translate(47.818 197.711)"><path class="as" d="M196.409,281.223s1.426.824,2.873,1.6l2.022.975a8.772,8.772,0,0,0,.926.42l-6.14,14.479s-.5-.19-1.219-.55l-2.645-1.279c-1.885-.995-3.721-2.066-3.721-2.066Z" transform="translate(-188.505 -281.223)"/></g><g transform="translate(33.272 188.643)"><path class="as" d="M190.437,275.652s.288.317.755.747,1.092,1,1.716,1.572c.612.591,1.273,1.107,1.76,1.507l.811.667-9.667,12.35-1.014-.833c-.606-.5-1.429-1.154-2.184-1.874l-2.118-1.942c-.573-.534-.926-.915-.926-.915Z" transform="translate(-179.569 -275.652)"/></g><g transform="translate(21.69 176.992)"><path class="as" d="M185.262,268.494s.243.361.6.905l1.413,1.921c.506.7,1.024,1.4,1.442,1.89s.677.838.677.838l-12.029,10-.811-1c-.5-.594-1.117-1.418-1.719-2.251s-1.216-1.659-1.672-2.282c-.43-.638-.715-1.063-.715-1.063Z" transform="translate(-172.453 -268.494)"/></g><g transform="translate(12.817 163.589)"><path class="as" d="M181.064,260.26s.179.405.48.993.687,1.38,1.081,2.17c.378.8.814,1.559,1.13,2.137l.529.962-13.559,7.738-.615-1.117c-.366-.671-.869-1.559-1.309-2.476s-.907-1.823-1.247-2.505-.552-1.144-.552-1.144Z" transform="translate(-167.002 -260.26)"/></g><g transform="translate(6.425 149.019)"><path class="as" d="M177.933,251.309s.518,1.707,1.092,3.391c.6,1.673,1.2,3.348,1.2,3.348l-14.542,5.621s-.682-1.9-1.366-3.809c-.654-1.914-1.242-3.846-1.242-3.846Z" transform="translate(-163.075 -251.309)"/></g><g transform="translate(2.269 133.73)"><path class="as" d="M175.849,241.916s.06.446.2,1.1.306,1.537.48,2.416c.319,1.766.768,3.5.768,3.5l-15.148,3.633s-.5-1.955-.864-3.934l-.539-2.715c-.155-.739-.225-1.237-.225-1.237Z" transform="translate(-160.522 -241.916)"/></g><g transform="translate(0.259 118.032)"><path class="as" d="M174.827,232.272s.06,1.8.249,3.589c.08.9.16,1.79.218,2.463s.112,1.117.112,1.117l-15.472,1.738s-.065-.5-.125-1.248-.156-1.75-.246-2.751c-.207-2-.277-4-.277-4Z" transform="translate(-159.287 -232.272)"/></g><g transform="translate(0 101.292)"><path class="as" d="M174.927,222.891s-.119,1.8-.168,3.6c-.033,1.8-.063,3.6-.063,3.6l-15.568-.081L159.2,226c.055-2.005.187-4.009.187-4.009Z" transform="translate(-159.128 -221.988)"/></g><g transform="translate(1.105 83.737)"><path class="as" d="M176.3,213.964l-.571,3.542c-.265,1.776-.467,3.561-.467,3.561l-15.452-1.908s.226-2,.522-3.986l.641-3.97Z" transform="translate(-159.807 -211.203)"/></g><g transform="translate(4.268 66.505)"><path class="as" d="M178.765,205.322s-.55,1.694-1,3.425c-.236.861-.474,1.721-.651,2.367l-.257,1.089-15.105-3.811s.117-.49.291-1.224c.2-.731.467-1.7.734-2.676.511-1.952,1.131-3.876,1.131-3.876Z" transform="translate(-161.75 -200.616)"/></g><g transform="translate(9.625 49.882)"><path class="as" d="M182.295,197.161s-.723,1.615-1.447,3.228c-.669,1.642-1.336,3.283-1.336,3.283l-14.471-5.808,1.53-3.755c.83-1.852,1.662-3.7,1.662-3.7Z" transform="translate(-165.041 -190.404)"/></g><g transform="translate(17.327 34.284)"><path class="as" d="M186.944,189.775l-.6.905c-.352.552-.869,1.25-1.309,2.009l-1.81,3-13.448-7.937s1.056-1.75,2.114-3.5c.516-.881,1.12-1.716,1.537-2.36l.711-1.066Z" transform="translate(-169.773 -180.821)"/></g><g transform="translate(27.644 20.305)"><path class="as" d="M192.608,183.513l-.747.76c-.438.467-1.068,1.037-1.624,1.691s-1.139,1.281-1.567,1.761-.7.812-.7.812l-11.856-10.211s.321-.4.845-.978l1.895-2.127c.676-.785,1.441-1.5,1.978-2.062l.912-.926Z" transform="translate(-176.111 -172.233)"/></g><g transform="translate(40.828 8.943)"><path class="as" d="M199.1,178.827s-.36.2-.877.547l-1.913,1.234-2.7,1.957-9.4-12.558s1.685-1.266,3.417-2.473l2.446-1.582c.661-.438,1.126-.7,1.126-.7Z" transform="translate(-184.211 -165.253)"/></g><g transform="translate(56.992 1.749)"><path class="as" d="M206.022,176.139l-.973.247a19.814,19.814,0,0,0-2.118.636,31.27,31.27,0,0,0-3.036,1.1l-5.754-14.641s1.974-.84,4.04-1.467c1.019-.347,2.046-.671,2.837-.851l1.307-.334Z" transform="translate(-194.141 -160.833)"/></g><g transform="translate(75.418)"><path class="as" d="M212.862,175.66a8.173,8.173,0,0,0-.995-.062l-2.194-.081c-.8-.018-1.6.05-2.194.06l-1,.033-1.022-15.722,1.353-.052c.811-.018,1.891-.094,2.974-.073,1.081.037,2.163.077,2.974.106s1.349.088,1.349.088Z" transform="translate(-205.461 -159.759)"/></g><g transform="translate(90.373 1.962)"><path class="as" d="M220.755,178.286s-.376-.151-.939-.381a18.644,18.644,0,0,0-2.087-.763c-.768-.244-1.527-.526-2.108-.682l-.972-.246,3.91-15.25,1.307.337c.78.213,1.794.573,2.819.905a29.343,29.343,0,0,1,2.774,1.016l1.242.5Z" transform="translate(-214.649 -160.964)"/></g><g transform="translate(103.465 9.384)"><path class="as" d="M228.148,182.8s-.322-.27-.833-.63l-1.851-1.356c-1.374-.934-2.772-1.817-2.772-1.817l8.065-13.476s1.8,1.126,3.542,2.32l2.339,1.711c.645.461,1.047.8,1.047.8Z" transform="translate(-222.692 -165.524)"/></g><g transform="translate(114.96 20.897)"><path class="as" d="M234.349,188.847l-.677-.838-1.569-1.76c-.56-.651-1.144-1.275-1.6-1.719l-.747-.759L240.728,172.6l.912.928c.558.547,1.268,1.3,1.945,2.087s1.377,1.548,1.893,2.129c.488.6.815,1,.815,1Z" transform="translate(-229.754 -172.597)"/></g><g transform="translate(124.51 34.966)"><path class="as" d="M239.3,196.036s-.2-.392-.539-.955-.793-1.309-1.247-2.056-.912-1.493-1.284-2.028-.605-.9-.605-.9L248.5,181.24l.711,1.066c.438.633.986,1.5,1.506,2.378s1.06,1.748,1.457,2.4.628,1.11.628,1.11Z" transform="translate(-235.621 -181.24)"/></g><g transform="translate(132.032 50.623)"><path class="as" d="M243,204.045s-.661-1.646-1.323-3.291c-.718-1.616-1.437-3.233-1.437-3.233l14.108-6.662L256,194.57l1.514,3.76Z" transform="translate(-240.242 -190.859)"/></g><g transform="translate(137.556 67.276)"><path class="as" d="M245.493,212.6s-.379-1.75-.882-3.462c-.238-.861-.475-1.722-.653-2.368s-.322-1.066-.322-1.066l14.884-4.613s.168.477.365,1.208.47,1.7.739,2.674c.565,1.939,1,3.907,1,3.907Z" transform="translate(-243.636 -201.09)"/></g><g transform="translate(141.141 84.53)"><path class="as" d="M246.852,221.474l-.444-3.565-.57-3.544,15.341-2.676.635,3.973c.251,1.994.5,3.988.5,3.988Z" transform="translate(-245.838 -211.69)"/></g><g transform="translate(142.861 102.095)"><path class="as" d="M247.1,230.5s-.033-1.8-.065-3.6c-.007-.9-.036-1.8-.083-2.474l-.06-1.123,15.546-.82.065,1.252c.052.752.085,1.755.093,2.757.036,2.005.07,4.011.07,4.011Z" transform="translate(-246.895 -222.481)"/></g></g><g transform="translate(44.497 71.126)"><ellipse class="as" cx="36.654" cy="45.587" rx="36.654" ry="45.587"/></g><g transform="translate(52.888 81.562)"><ellipse class="aq" cx="28.263" cy="35.152" rx="28.263" ry="35.152"/></g><g class="ay" transform="translate(0 42.474)"><path class="as" d="M304.026,324.661c-14.9,27.277-38.274,44.846-64.546,44.846-44.99,0-81.478-51.549-81.478-115.128,0-27.557,6.85-52.835,18.283-72.641C179.836,219.667,199.748,350.495,304.026,324.661Z" transform="translate(-158.002 -181.738)"/></g><g transform="translate(99.463 37.773)"><path class="az" d="M252.2,239.281c-3.089.125-3.928-3.535-5.1-9.475-.306-1.486-.592-3.13-1.027-4.872-.358-1.766-.89-3.614-1.441-5.577a64.291,64.291,0,0,0-5.083-12.267,118.376,118.376,0,0,0-7.18-11.186c-1.247-1.608-2.376-3.2-3.561-4.576-1.126-1.436-2.245-2.705-3.27-3.876-4.1-4.667-6.9-7.5-6.364-8.393.456-.783,4.263.576,9.491,4.554a44.983,44.983,0,0,1,4.09,3.495c1.454,1.3,2.84,2.857,4.327,4.484a74.017,74.017,0,0,1,8.266,11.835,88.3,88.3,0,0,1,5.966,13.289c.7,2.132,1.359,4.16,1.8,6.114a47.46,47.46,0,0,1,1.06,5.442C255.073,235.021,254.23,239.213,252.2,239.281Z" transform="translate(-219.107 -178.85)"/></g><g transform="translate(56.874 96.432)"><path class="az" d="M195.6,215.494a9.683,9.683,0,0,0-1.862,1.911,3.918,3.918,0,0,0-.789,2.136,4.09,4.09,0,0,0,.514,2,2.518,2.518,0,0,0,3.439.9,3.816,3.816,0,0,0,1.919-2.629q.171-1.267.07-.511.081-.479.137-.962c.02-.155.033-.309.041-.466,0,.018.08-.728.028-.35a2.092,2.092,0,0,0-3.5-2.036Z" transform="translate(-192.943 -214.887)"/></g><g transform="translate(56.792 113.18)"><path class="az" d="M193.349,226.437a5.256,5.256,0,0,0-.3,3.337,1.8,1.8,0,0,0,1.724,1.312,1.83,1.83,0,0,0,1.787-1.787c.075-.6-.01-1.31.094-1.952a1.712,1.712,0,1,0-3.3-.91Z" transform="translate(-192.892 -225.177)"/></g><g transform="translate(58.287 127.616)"><path class="az" d="M194.161,237.818a8.054,8.054,0,0,0,.978,1.4,13.461,13.461,0,0,0,1.6,1.221,2.735,2.735,0,0,0,3.326-.43,2.773,2.773,0,0,0,0-3.88,10.992,10.992,0,0,0-1.3-1.188,5.671,5.671,0,0,0-1.149-.578,2.605,2.605,0,0,0-3.062.394,2.535,2.535,0,0,0-.394,3.063Z" transform="translate(-193.811 -234.045)"/></g><g transform="translate(69.21 141.83)"><path class="az" d="M200.617,244.289c-.539,1.93,1.3,3.633,2.969,4.17a4.613,4.613,0,0,0,2.5.153,2.877,2.877,0,0,0,2.066-2.586,3.472,3.472,0,0,0-.077-.563c-.042-.2-1.006-1.585-.4-.765a2.9,2.9,0,0,0-1.8-1.271,8.551,8.551,0,0,1-.85-.2c-1.527-.48-3.819-1.055-4.411,1.06Z" transform="translate(-200.521 -242.777)"/></g><g transform="translate(85.574 140.939)"><path class="az" d="M212.991,248.205a9.11,9.11,0,0,0,2.928-.444,2.826,2.826,0,0,0,.676-5.163,2.962,2.962,0,0,0-2.853,0l-1.156.509a5.152,5.152,0,0,0-1.305.97,2.407,2.407,0,0,0-.622,2.352,2.472,2.472,0,0,0,2.333,1.776Z" transform="translate(-210.574 -242.23)"/></g><g transform="translate(97.397 133.064)"><path class="az" d="M221.56,241.367a5.5,5.5,0,0,0,.689-.853,5.409,5.409,0,0,1,.531-.858,1.493,1.493,0,0,0,0-1.535,1.575,1.575,0,0,0-1.719-.7,4.239,4.239,0,0,0-1.467.439,5.484,5.484,0,0,0-1.458,1.5,1.986,1.986,0,0,0,.711,2.713,2.018,2.018,0,0,0,2.713-.711Z" transform="translate(-217.838 -237.392)"/></g><g transform="translate(101.309 116.386)"><path class="az" d="M224.426,232.9c.151-.223.147-.226-.018-.01.086-.1.176-.194.265-.288q.693-.894.249-.329c.093-.107.189-.21.291-.308a2.825,2.825,0,1,0-4.72-2.748,5.014,5.014,0,0,0,.01,3.169,2.169,2.169,0,0,0,3.923.513Z" transform="translate(-220.241 -227.146)"/></g><g transform="translate(99.909 100.154)"><path class="az" d="M219.387,219.319c.148,1.753.579,4.151,2.586,4.631a2.281,2.281,0,0,0,2.792-1.584,3.163,3.163,0,0,0-.578-2.575,6.537,6.537,0,0,1-.352-.565c-.072-.127-.138-.257-.2-.389.073.19.062.161-.033-.088a2.2,2.2,0,0,0-2.069-1.576,2.153,2.153,0,0,0-2.147,2.145Z" transform="translate(-219.381 -217.174)"/></g><g transform="translate(90.203 90.488)"><path class="az" d="M214.279,214.615a3.925,3.925,0,0,0,2.674.671,1.7,1.7,0,0,0,1.012-2.492,3.966,3.966,0,0,0-2.3-1.457c-1.929-.69-3.158,2.331-1.382,3.278Z" transform="translate(-213.419 -211.236)"/></g><g transform="translate(76.36 83.895)"><path class="az" d="M205.152,210.65a4.742,4.742,0,0,0,2.22,1.647,10.486,10.486,0,0,0,1.1.249,3.827,3.827,0,0,0,2.64-.339,2.611,2.611,0,0,0,1.315-2.292,2.731,2.731,0,0,0-1.95-2.559,6.1,6.1,0,0,0-5.064,1.284,1.638,1.638,0,0,0-.259,2.009Z" transform="translate(-204.914 -207.185)"/></g><g transform="translate(66.437 89.555)"><path class="az" d="M200.713,214.91a5.041,5.041,0,0,0,1.9-.485c2.079-.98.6-4.346-1.55-3.675a4.977,4.977,0,0,0-1.677.96c-1.278,1-.221,3.319,1.325,3.2Z" transform="translate(-198.818 -210.662)"/></g></g></g></g></g><path class="aq" d="M329.315,434.354l9.718-15.033,9.718,15.033-9.718,15.033ZM124,389.354l18.284-28.284,18.283,28.284-18.283,28.284Zm-114-174L28.284,187.07l18.284,28.283L28.284,243.638Zm337-148L365.284,39.07l18.284,28.284L365.284,95.639ZM120.8,19.319,133.285,0l12.488,19.319L133.285,38.639Z" transform="translate(775.716 770.646)"/></g></svg>