<svg xmlns="http://www.w3.org/2000/svg" width="54.37" height="54.37" viewBox="0 0 54.37 54.37"><defs><style>.a{fill:#fff;}.b{fill:#ef3e24;}</style></defs><g transform="translate(-721.295 -223.715)"><path class="a" d="M767.7,231.678a27.185,27.185,0,0,0-45.484,26.259l16.61-16.61h0l.035-.038a13.594,13.594,0,0,1,19.226,19.225l-.038.036h0l-16.61,16.61A27.186,27.186,0,0,0,767.7,231.678" transform="translate(0)"/><path class="b" d="M757.036,266.232q.11-.1.216-.21A9.788,9.788,0,0,0,743.41,252.18c-.129.13-.254.263-.375.4a1.912,1.912,0,0,0-.178.156l-10.52,10.52a1.957,1.957,0,0,0,2.768,2.768l4.43-4.429a1.957,1.957,0,0,1,2.768,2.768l-.138.138-7.89,7.891a1.957,1.957,0,0,0,2.768,2.768l8.029-8.028a1.957,1.957,0,0,1,2.768,2.768l-1.108,1.108a1.957,1.957,0,0,0,2.768,2.768l7.475-7.475c.022-.021.04-.045.06-.067M732.89,276.543h0a1.957,1.957,0,0,0-2.769,0l-1.938,1.937a1.958,1.958,0,0,0,2.769,2.769l1.938-1.938a1.957,1.957,0,0,0,0-2.768m12.458,1.384-1.938,1.938a1.957,1.957,0,0,1-2.768-2.768l1.938-1.938a1.957,1.957,0,1,1,2.768,2.768" transform="translate(-1.989 -8.063)"/></g></svg>