<svg xmlns="http://www.w3.org/2000/svg" viewBox="0 0 705.31 111.96"><defs><style>.cls-2{fill:#26265e}</style></defs><g id="Camada_2" data-name="Camada 2"><g id="_1._LOGOTIPO" data-name="1. LOGOTIPO"><path d="M385.13 81.07l-2.24 2.24a2.26 2.26 0 1 1-3.2-3.19l2.24-2.24a2.26 2.26 0 0 1 3.2 3.19m-14.39-1.59a2.24 2.24 0 0 0-3.19 0l-2.24 2.23a2.26 2.26 0 1 0 3.2 3.2l2.23-2.24a2.24 2.24 0 0 0 0-3.19m27.88-11.91l.25-.24a11.3 11.3 0 0 0-16-16c-.15.15-.3.31-.43.46l-.21.18-12.12 12.17a2.26 2.26 0 0 0 3.19 3.19l5.11-5.11a2.26 2.26 0 0 1 3.2 3.19l-.16.16-9.11 9.11a2.26 2.26 0 0 0 3.2 3.2l9.27-9.27a2.26 2.26 0 0 1 3.19 3.2l-1.28 1.28a2.26 2.26 0 0 0 3.2 3.19l8.63-8.63.07-.08" fill="#ee3e25"/><path class="cls-2" d="M0 12.51A12.51 12.51 0 1 1 12.51 25 12.47 12.47 0 0 1 0 12.51M413.23 37a31.39 31.39 0 0 0-52.51 30.32l19.17-19.18a15.69 15.69 0 0 1 22.19 22.19L382.91 89.5A31.39 31.39 0 0 0 413.23 37M4 29.35zM333.39 49c-5.94-.86-7.68-1.11-7.68-2.72 0-1.36 2.36-2.48 5.58-2.48A30 30 0 0 1 346 48a3.84 3.84 0 0 0 4.7-1.15l4.65-8.24a3.78 3.78 0 0 0-1.07-4.8 47.23 47.23 0 0 0-23.08-6c-17.34 0-26.75 9.66-26.75 20.43 0 16.72 15.48 18.82 25.51 20.19 4.83.62 8.42 1.11 8.42 3 0 1.49-1.36 2.6-5.94 2.6-5.55 0-13.48-2.64-18.71-5.67a3.85 3.85 0 0 0-4.68 1.2L303.44 79a3.77 3.77 0 0 0 1.2 4.49c6.74 4.29 17 7.21 26.65 7.21a48.13 48.13 0 0 0 6.51-.42l21.79-21.79c-1-15.71-16.5-18-26.2-19.4m-34.06 36.32v-75a3.82 3.82 0 0 0-3.76-3.82h-14.76a3.77 3.77 0 0 0-3.81 3.74v75a3.84 3.84 0 0 0 3.77 3.83h14.76a3.76 3.76 0 0 0 3.76-3.76m-30-51.63v-.6a3.84 3.84 0 0 0-3.76-3.83h-14.69a3.77 3.77 0 0 0-3.77 3.76v33.16c-1.86 2.1-4.46 4.7-9.41 4.7-5.45 0-8.67-2.35-8.67-8.42V33.18a3.84 3.84 0 0 0-3.77-3.83h-14.76a3.76 3.76 0 0 0-3.76 3.76v39c0 10.28 5.94 18.57 19.81 18.57 10.53 0 17.09-4.33 20.56-8.17v2.88a3.83 3.83 0 0 0 3.67 3.81h15.05a3.76 3.76 0 0 0 3.57-3.76V33.78zM130 85.41V45.82c0-12.38-7.43-17.95-18.46-17.95-9.65 0-17.46 5.32-20.92 10.52-2.69-7.39-8.76-10.52-17.18-10.52-9.66 0-17.21 4.95-19.81 8.29v-2.98a3.84 3.84 0 0 0-3.76-3.83H35.1a3.77 3.77 0 0 0-3.77 3.76v52.23a3.84 3.84 0 0 0 3.77 3.83h14.76a3.76 3.76 0 0 0 3.76-3.77V52.26c1.48-1.73 4.21-4.7 9-4.7 5.07 0 6.81 3.09 6.81 6.68v31.1a3.84 3.84 0 0 0 3.76 3.83H88a3.77 3.77 0 0 0 3.77-3.77V52.26c1.49-1.73 4.21-4.7 9.16-4.7s6.82 3.09 6.82 6.68v31.1a3.84 3.84 0 0 0 3.76 3.83h14.76a3.77 3.77 0 0 0 3.73-3.76m73.11-26.21c0 20.56-11.4 31.45-26.26 31.45a21.19 21.19 0 0 1-16.85-7.8v25.34a3.77 3.77 0 0 1-3.77 3.77h-14.75a3.82 3.82 0 0 1-3.76-3.82v-75a3.76 3.76 0 0 1 3.76-3.77h14.76a3.84 3.84 0 0 1 3.76 3.81v2.49a21 21 0 0 1 16.84-7.8c14.86 0 26.26 10.89 26.26 31.33m-22.79 0c0-7.43-5.2-11.64-11.15-11.64-2.85 0-7.06 1.48-9.16 4.08v15.24c2 2.47 6.31 4.08 9.16 4.08 6 0 11.15-4.21 11.15-11.76M23.65 85.4V33.18a3.84 3.84 0 0 0-3.76-3.83H5.13a3.77 3.77 0 0 0-3.77 3.76v52.23a3.84 3.84 0 0 0 3.77 3.83h14.76a3.76 3.76 0 0 0 3.76-3.77M696.19 91.83H447.86a9.14 9.14 0 0 1-9.12-9.13v-47a9.13 9.13 0 0 1 9.12-9.12h248.33a9.13 9.13 0 0 1 9.12 9.12v47a9.14 9.14 0 0 1-9.12 9.13zM447.86 29.57a6.09 6.09 0 0 0-6.09 6.09v47a6.1 6.1 0 0 0 6.09 6.1h248.33a6.11 6.11 0 0 0 6.09-6.1v-47a6.1 6.1 0 0 0-6.09-6.09z"/><path class="cls-2" d="M481.76 68.07l-9.29-12.7v12.7h-3.12v-17.8h3.2l9.11 12.36V50.27h3.12v17.8zM501.91 68.07v-17.8h12.21V53H505v4.61h8.89v2.75H505v4.94h9.08v2.75zM534.91 68.07V53h-5.4v-2.73h13.91V53H538v15zM573 68.07l-3.47-13.13-3.45 13.13h-3.34l-5.09-17.8h3.49l3.5 13.73 3.69-13.72h2.48L574.5 64l3.44-13.72h3.5l-5.08 17.8zM595.53 59.18a9.1 9.1 0 1 1 18.2 0 9.1 9.1 0 1 1-18.2 0zm15 0c0-3.68-2.32-6.43-5.9-6.43s-5.9 2.75-5.9 6.43 2.3 6.44 5.9 6.44 5.9-2.78 5.9-6.44zM640.27 68.07l-4-6.64h-3.09v6.64h-3.13v-17.8h7.83c3.52 0 5.82 2.29 5.82 5.58a5 5 0 0 1-4.22 5.23l4.35 7zm.26-12.22a2.8 2.8 0 0 0-3-2.83h-4.27v5.66h4.27a2.81 2.81 0 0 0 3-2.83zM670.86 68.07l-6-7.5-1.55 1.82v5.68h-3.11v-17.8h3.13v8.49l7-8.49h3.87l-7.24 8.41 7.77 9.39z"/></g></g></svg>