<svg xmlns="http://www.w3.org/2000/svg" viewBox="0 0 255.1 40.5"><style>.st4{fill:#27245e}</style><g id="Layer_2"><path d="M141.5 29.3l-.8.8c-.3.3-.8.3-1.2 0s-.3-.8 0-1.2l.8-.8c.3-.3.8-.3 1.2 0 .3.4.3.9 0 1.2zm-5.3-.6c-.3-.3-.8-.3-1.2 0l-.8.8c-.3.3-.3.8 0 1.2.3.3.8.3 1.2 0l.8-.8c.3-.3.3-.8 0-1.2zm10.2-4.3s.1-.1 0 0c1.7-1.7 1.7-4.3.1-5.9-1.6-1.6-4.2-1.6-5.8 0l-.2.2s-.1 0-.1.1l-4.4 4.4c-.3.3-.3.8 0 1.2.3.3.8.3 1.2 0l1.9-1.9c.3-.3.8-.3 1.2 0 .3.3.3.8 0 1.2l-.1.1-3.3 3.3c-.3.3-.3.8 0 1.2.3.3.8.3 1.2 0l3.4-3.4c.3-.3.8-.3 1.2 0 .3.3.3.8 0 1.2l-.5.5c-.3.3-.3.8 0 1.2.3.3.8.3 1.2 0l3-3.4z" fill="#ef3d26"/><path class="st4" d="M.8 4.3c0-2.5 2-4.6 4.6-4.6 2.5 0 4.6 2 4.6 4.6 0 2.5-2 4.6-4.6 4.6C2.9 8.9.8 6.8.8 4.3zm150.9 8.9c-4.5-4.5-11.7-4.5-16.2 0-3 3-4 7.2-3 11.1l7-7c2.2-2.2 5.9-2.2 8.1 0 2.2 2.2 2.2 5.9 0 8.1l-7 7c3.8 1 8.1 0 11.1-3 4.5-4.4 4.5-11.7 0-16.2zM2.3 10.4c-.1 0 0 0 0 0zm120.3 7.2c-2.2-.3-2.8-.4-2.8-1 0-.5.9-.9 2-.9 2 0 3.9.7 5.4 1.5.6.3 1.3.1 1.7-.4l1.7-3c.3-.6.1-1.3-.4-1.7-2.4-1.3-5.2-2.2-8.4-2.2-6.3 0-9.8 3.5-9.8 7.5 0 6.1 5.7 6.9 9.3 7.4 1.8.2 3.1.4 3.1 1.1 0 .5-.5.9-2.2.9-2 0-4.9-1-6.8-2.1-.6-.3-1.3-.1-1.7.4l-2 3.4c-.3.6-.1 1.3.4 1.6 2.5 1.6 6.2 2.6 9.7 2.6.8 0 1.6-.1 2.4-.2l8-8c-.4-5.5-6.1-6.3-9.6-6.9zm-12.5 13.3V3.5c0-.8-.6-1.4-1.4-1.4h-5.4c-.8 0-1.4.6-1.4 1.4v27.3c0 .8.6 1.4 1.4 1.4h5.4c.8.1 1.4-.5 1.4-1.3zM99.2 12.1v-.2c0-.8-.6-1.4-1.4-1.4h-5.4c-.8 0-1.4.6-1.4 1.4V24c-.7.8-1.6 1.7-3.4 1.7-2 0-3.2-.9-3.2-3.1V11.8c0-.8-.6-1.4-1.4-1.4h-5.4c-.8 0-1.4.6-1.4 1.4V26c0 3.8 2.2 6.8 7.2 6.8 3.8 0 6.2-1.6 7.5-3v1c0 .8.6 1.4 1.3 1.4h5.5c.7 0 1.3-.6 1.3-1.4V12.1h.2zM48.3 30.9V16.5c0-4.5-2.7-6.6-6.7-6.6-3.5 0-6.4 1.9-7.6 3.8-1-2.7-3.2-3.8-6.3-3.8-3.5 0-6.3 1.8-7.2 3v-1.1c0-.8-.6-1.4-1.4-1.4h-5.4c-.8 0-1.4.6-1.4 1.4v19.1c0 .8.6 1.4 1.4 1.4H19c.8 0 1.4-.6 1.4-1.4V18.8c.5-.6 1.5-1.7 3.3-1.7 1.9 0 2.5 1.1 2.5 2.4v11.4c0 .8.6 1.4 1.4 1.4H33c.8 0 1.4-.6 1.4-1.4V18.8c.5-.6 1.5-1.7 3.3-1.7 1.8 0 2.5 1.1 2.5 2.4v11.4c0 .8.6 1.4 1.4 1.4H47c.7 0 1.3-.6 1.3-1.4zM75 21.3c0 7.5-4.2 11.5-9.6 11.5-2.3 0-4.3-.8-6.2-2.8v9.3c0 .8-.6 1.4-1.4 1.4h-5.4c-.8 0-1.4-.6-1.4-1.4V11.9c0-.8.6-1.4 1.4-1.4h5.4c.8 0 1.4.6 1.4 1.4v.9c1.8-2.1 3.9-2.8 6.2-2.8 5.4-.1 9.6 3.9 9.6 11.3zm-8.3 0c0-2.7-1.9-4.3-4.1-4.3-1 0-2.6.5-3.3 1.5v5.6c.7.9 2.3 1.5 3.3 1.5 2.2 0 4.1-1.5 4.1-4.3zM9.5 30.9V11.8c0-.8-.6-1.4-1.4-1.4H2.7c-.8 0-1.4.6-1.4 1.4v19.1c0 .8.6 1.4 1.4 1.4h5.4c.8 0 1.4-.6 1.4-1.4zM218 19.8c-1.2 0-2 .9-2 2.2 0 1.2.8 2.2 2 2.2s2-.9 2-2.2c.1-1.2-.7-2.2-2-2.2z"/><path class="st4" d="M252.4 9.8h-90.6c-1.5 0-2.8 1.3-2.8 2.8v17.1c0 1.5 1.3 2.8 2.8 2.8h90.6c1.5 0 2.8-1.3 2.8-2.8V12.6c0-1.5-1.3-2.8-2.8-2.8zm-77.7 15.5h-1.4l-3.2-4.3v4.3h-1.4v-6.7h1.5l3.1 4.2v-4.2h1.4v6.7zm10.6-5.4H182v1.4h3.2v1.2H182V24h3.3v1.2h-4.7v-6.7h4.7v1.4zm10.6 0H194v5.4h-1.4v-5.4h-1.9v-1.2h5.3v1.2zm12.1 5.4h-1.5l-1.2-4.6-1.2 4.6h-1.5l-1.9-6.7h1.6l1.2 4.8 1.3-4.8h1.1l1.3 4.8 1.2-4.8h1.6l-2 6.7zm10 .1c-2 0-3.5-1.4-3.5-3.4s1.5-3.4 3.5-3.4 3.5 1.4 3.5 3.4-1.4 3.4-3.5 3.4zm12.9-.1l-1.3-2.4h-1v2.4h-1.4v-6.7h3.1c1.4 0 2.2.9 2.2 2.1 0 1.2-.7 1.8-1.5 2l1.5 2.5h-1.6zm11.1 0l-2-2.7-.5.6v2h-1.4v-6.7h1.4v3l2.4-3h1.7l-2.6 3.1 2.8 3.5H242z"/><path class="st4" d="M230 19.9h-1.5v1.8h1.5c.6 0 1-.3 1-.9 0-.5-.4-.9-1-.9z"/></g></svg>