<svg xmlns="http://www.w3.org/2000/svg" width="82.559" height="46.73" viewBox="0 0 82.559 46.73"><defs><style>.a{fill:#595b98;}</style></defs><g transform="translate(-433.69 -871)"><path class="a" d="M22.069,10.842a1.618,1.618,0,0,0-.9-2.76L15.71,7.289a.713.713,0,0,1-.538-.391L12.73,1.949a1.618,1.618,0,0,0-2.9,0L7.387,6.9a.714.714,0,0,1-.538.391l-5.462.794a1.618,1.618,0,0,0-.9,2.759l3.952,3.852a.715.715,0,0,1,.206.632l-.933,5.44a1.618,1.618,0,0,0,2.347,1.705L10.947,19.9a.715.715,0,0,1,.665,0L16.5,22.472a1.618,1.618,0,0,0,2.347-1.705l-.933-5.44a.715.715,0,0,1,.206-.632Z" transform="translate(448.69 869.953)"/><path class="a" d="M22.069,10.842a1.618,1.618,0,0,0-.9-2.76L15.71,7.289a.713.713,0,0,1-.538-.391L12.73,1.949a1.618,1.618,0,0,0-2.9,0L7.387,6.9a.714.714,0,0,1-.538.391l-5.462.794a1.618,1.618,0,0,0-.9,2.759l3.952,3.852a.715.715,0,0,1,.206.632l-.933,5.44a1.618,1.618,0,0,0,2.347,1.705L10.947,19.9a.715.715,0,0,1,.665,0L16.5,22.472a1.618,1.618,0,0,0,2.347-1.705l-.933-5.44a.715.715,0,0,1,.206-.632Z" transform="translate(433.69 895.07)"/><path class="a" d="M22.069,10.842a1.618,1.618,0,0,0-.9-2.76L15.71,7.289a.713.713,0,0,1-.538-.391L12.73,1.949a1.618,1.618,0,0,0-2.9,0L7.387,6.9a.714.714,0,0,1-.538.391l-5.462.794a1.618,1.618,0,0,0-.9,2.759l3.952,3.852a.715.715,0,0,1,.206.632l-.933,5.44a1.618,1.618,0,0,0,2.347,1.705L10.947,19.9a.715.715,0,0,1,.665,0L16.5,22.472a1.618,1.618,0,0,0,2.347-1.705l-.933-5.44a.715.715,0,0,1,.206-.632Z" transform="translate(463.69 895.07)"/><path class="a" d="M22.069,10.842a1.618,1.618,0,0,0-.9-2.76L15.71,7.289a.713.713,0,0,1-.538-.391L12.73,1.949a1.618,1.618,0,0,0-2.9,0L7.387,6.9a.714.714,0,0,1-.538.391l-5.462.794a1.618,1.618,0,0,0-.9,2.759l3.952,3.852a.715.715,0,0,1,.206.632l-.933,5.44a1.618,1.618,0,0,0,2.347,1.705L10.947,19.9a.715.715,0,0,1,.665,0L16.5,22.472a1.618,1.618,0,0,0,2.347-1.705l-.933-5.44a.715.715,0,0,1,.206-.632Z" transform="translate(493.69 895.07)"/><path class="a" d="M22.069,10.842a1.618,1.618,0,0,0-.9-2.76L15.71,7.289a.713.713,0,0,1-.538-.391L12.73,1.949a1.618,1.618,0,0,0-2.9,0L7.387,6.9a.714.714,0,0,1-.538.391l-5.462.794a1.618,1.618,0,0,0-.9,2.759l3.952,3.852a.715.715,0,0,1,.206.632l-.933,5.44a1.618,1.618,0,0,0,2.347,1.705L10.947,19.9a.715.715,0,0,1,.665,0L16.5,22.472a1.618,1.618,0,0,0,2.347-1.705l-.933-5.44a.715.715,0,0,1,.206-.632ZM17.021,15.48l.933,5.44a.714.714,0,0,1-1.036.753L12.033,19.1a1.618,1.618,0,0,0-1.506,0L5.642,21.673a.715.715,0,0,1-1.037-.753l.933-5.44a1.618,1.618,0,0,0-.465-1.432L1.12,10.2a.715.715,0,0,1,.4-1.219l5.462-.794A1.616,1.616,0,0,0,8.2,7.3l2.442-4.949a.715.715,0,0,1,1.282,0L14.362,7.3a1.615,1.615,0,0,0,1.218.885l5.462.794a.715.715,0,0,1,.4,1.219l-3.952,3.852A1.617,1.617,0,0,0,17.021,15.48Z" transform="translate(478.69 869.953)"/></g></svg>